<?xml version="1.0" encoding="utf-8"?>
<!-- Generator: Adobe Adobe Illustrator 24.2.0, SVG Export Plug-In . SVG Version: 6.00 Build 0)  -->
<svg version="1.1" id="Layer_1" xmlns="http://www.w3.org/2000/svg" xmlns:xlink="http://www.w3.org/1999/xlink" x="0px" y="0px"
	 width="640px" height="480px" viewBox="0 0 640 480" style="enable-background:new 0 0 640 480;" xml:space="preserve">
<style type="text/css">
	.st0{fill:#FFFFFF;stroke:#000000;stroke-miterlimit:10;}
	.st1{font-family:'SourceSansPro-Regular';}
	.st2{font-size:30px;}
	.st3{font-size:20px;}
</style>
<line class="st0" x1="230.54" y1="213.85" x2="245.23" y2="199.15"/>
<line class="st0" x1="230.54" y1="213.85" x2="245.23" y2="228.51"/>
<text transform="matrix(1 0 0 1 248.3413 223.1013)" class="st1 st2">120</text>
<line class="st0" x1="245.23" y1="199.15" x2="277.68" y2="199.15"/>
<line class="st0" x1="245.23" y1="228.51" x2="277.68" y2="228.51"/>
<line class="st0" x1="277.68" y1="199.15" x2="277.68" y2="184.85"/>
<line class="st0" x1="277.68" y1="228.51" x2="277.68" y2="242.85"/>
<line class="st0" x1="277.68" y1="184.85" x2="296.21" y2="184.85"/>
<line class="st0" x1="277.68" y1="242.85" x2="296.21" y2="242.85"/>
<line class="st0" x1="296.21" y1="184.85" x2="296.21" y2="242.85"/>
<text transform="matrix(1 0 0 1 214.3848 155.6013)" class="st1 st2">Airspeed</text>
<text transform="matrix(1 0 0 1 402.3638 223.6821)" class="st1 st2">10</text>
<line class="st0" x1="399.54" y1="199.15" x2="441.68" y2="199.16"/>
<line class="st0" x1="399.54" y1="228.51" x2="441.68" y2="228.51"/>
<line class="st0" x1="441.68" y1="199.16" x2="441.68" y2="184.86"/>
<line class="st0" x1="441.68" y1="228.51" x2="441.68" y2="242.85"/>
<line class="st0" x1="441.68" y1="184.86" x2="465.21" y2="184.85"/>
<line class="st0" x1="441.68" y1="242.85" x2="465.21" y2="242.85"/>
<line class="st0" x1="479.89" y1="213.83" x2="465.21" y2="228.53"/>
<line class="st0" x1="479.89" y1="213.83" x2="465.21" y2="199.17"/>
<line class="st0" x1="465.21" y1="184.85" x2="465.21" y2="199.17"/>
<line class="st0" x1="465.21" y1="228.53" x2="465.21" y2="242.85"/>
<line class="st0" x1="399.54" y1="199.15" x2="399.54" y2="228.51"/>
<text transform="matrix(1 0 0 1 433.0319 219.1824)" class="st1 st3">220</text>
<text transform="matrix(1 0 0 1 443.5044 201.4512)" class="st1 st3">40</text>
<text transform="matrix(1 0 0 1 443.5043 237.7823)" class="st1 st3">00</text>
<text transform="matrix(1 0 0 1 382.3848 158.5581)" class="st1 st2">Altitude</text>
<text transform="matrix(1 0 0 1 277.6836 196.6013)" class="st1 st2">1</text>
<text transform="matrix(1 0 0 1 279.4899 249.301)" class="st1 st2">9</text>
</svg>
