<?xml version="1.0" encoding="utf-8"?>
<!-- Generator: Adobe Adobe Illustrator 24.2.0, SVG Export Plug-In . SVG Version: 6.00 Build 0)  -->
<svg version="1.1" id="Layer_1" xmlns="http://www.w3.org/2000/svg" xmlns:xlink="http://www.w3.org/1999/xlink" x="0px" y="0px"
	 width="640px" height="480px" viewBox="0 0 640 480" style="enable-background:new 0 0 640 480;" xml:space="preserve">
<style type="text/css">
	.st0{fill:#FFFFFF;stroke:#000000;stroke-miterlimit:10;}
	.st1{fill:none;stroke:#000000;stroke-miterlimit:10;}
	.st2{fill:#D9E021;}
	.st3{clip-path:url(#SVGID_2_);fill:#D9E021;stroke:#000000;stroke-miterlimit:10;}
	.st4{clip-path:url(#SVGID_2_);}
	.st5{clip-path:url(#SVGID_4_);fill:#D9E021;stroke:#000000;stroke-miterlimit:10;}
	.st6{clip-path:url(#SVGID_6_);fill:#D9E021;stroke:#000000;stroke-miterlimit:10;}
	.st7{clip-path:url(#SVGID_8_);fill:#D9E021;stroke:#000000;stroke-miterlimit:10;}
	.st8{clip-path:url(#SVGID_8_);}
	.st9{clip-path:url(#SVGID_10_);fill:#D9E021;stroke:#000000;stroke-miterlimit:10;}
	.st10{clip-path:url(#SVGID_12_);fill:#D9E021;stroke:#000000;stroke-miterlimit:10;}
</style>
<g>
	<g>
		<g>
			<g>
				<g>
					<g>
						<line class="st0" x1="258" y1="261.44" x2="320" y2="232.44"/>
						<line class="st0" x1="274.16" y1="261.44" x2="320" y2="232.44"/>
						<line class="st0" x1="320" y1="232.44" x2="382" y2="261.44"/>
						<line class="st0" x1="274.16" y1="261.44" x2="258" y2="261.44"/>
						<line class="st0" x1="381.91" y1="261.44" x2="365.75" y2="261.44"/>
						<line class="st0" x1="320" y1="232.44" x2="365.75" y2="261.44"/>
					</g>
				</g>
			</g>
			<line class="st0" x1="320" y1="232.44" x2="266.33" y2="261.44"/>
			<line class="st1" x1="320" y1="232.44" x2="373.67" y2="261.44"/>
		</g>
	</g>
</g>
<g>
	<g>
		<defs>
			<polygon id="SVGID_1_" points="227.57,227.8 227.57,227.8 258.35,227.8 258.35,236.46 227.57,236.46 			"/>
		</defs>
		<clipPath id="SVGID_2_">
			<use xlink:href="#SVGID_1_"  style="overflow:visible;"/>
		</clipPath>
		<line class="st3" x1="258" y1="231.99" x2="228.07" y2="231.99"/>
		<line class="st3" x1="258" y1="231.99" x2="254.31" y2="228.3"/>
		<line class="st3" x1="254.31" y1="228.3" x2="228.07" y2="228.3"/>
		<line class="st3" x1="228.07" y1="228.3" x2="228.07" y2="231.99"/>
		<g class="st4">
			<g>
				<defs>
					<rect id="SVGID_3_" x="227.57" y="227.8" width="30.78" height="4.54"/>
				</defs>
				<clipPath id="SVGID_4_">
					<use xlink:href="#SVGID_3_"  style="overflow:visible;"/>
				</clipPath>
				<line class="st5" x1="258" y1="231.99" x2="254.31" y2="228.3"/>
				<line class="st5" x1="254.31" y1="228.3" x2="228.07" y2="228.3"/>
				<line class="st5" x1="228.07" y1="228.3" x2="228.07" y2="231.99"/>
			</g>
			<g>
				<defs>
					<rect id="SVGID_5_" x="227.57" y="231.92" width="30.78" height="4.54"/>
				</defs>
				<clipPath id="SVGID_6_">
					<use xlink:href="#SVGID_5_"  style="overflow:visible;"/>
				</clipPath>
				<line class="st6" x1="258" y1="232.27" x2="254.31" y2="235.96"/>
				<line class="st6" x1="254.31" y1="235.96" x2="228.07" y2="235.96"/>
				<line class="st6" x1="228.07" y1="235.96" x2="228.07" y2="232.27"/>
			</g>
		</g>
	</g>
	<g>
		<defs>
			<polygon id="SVGID_7_" points="412.62,227.8 412.62,227.8 381.84,227.8 381.84,236.46 412.62,236.46 			"/>
		</defs>
		<clipPath id="SVGID_8_">
			<use xlink:href="#SVGID_7_"  style="overflow:visible;"/>
		</clipPath>
		<line class="st7" x1="382.19" y1="231.99" x2="412.12" y2="231.99"/>
		<line class="st7" x1="382.19" y1="231.99" x2="385.88" y2="228.3"/>
		<line class="st7" x1="385.88" y1="228.3" x2="412.12" y2="228.3"/>
		<line class="st7" x1="412.12" y1="228.3" x2="412.12" y2="231.99"/>
		<g class="st8">
			<g>
				<defs>
					<rect id="SVGID_9_" x="381.84" y="227.8" width="30.78" height="4.54"/>
				</defs>
				<clipPath id="SVGID_10_">
					<use xlink:href="#SVGID_9_"  style="overflow:visible;"/>
				</clipPath>
				<line class="st9" x1="382.19" y1="231.99" x2="385.88" y2="228.3"/>
				<line class="st9" x1="385.88" y1="228.3" x2="412.12" y2="228.3"/>
				<line class="st9" x1="412.12" y1="228.3" x2="412.12" y2="231.99"/>
			</g>
			<g>
				<defs>
					<rect id="SVGID_11_" x="381.84" y="231.92" width="30.78" height="4.54"/>
				</defs>
				<clipPath id="SVGID_12_">
					<use xlink:href="#SVGID_11_"  style="overflow:visible;"/>
				</clipPath>
				<line class="st10" x1="382.19" y1="232.27" x2="385.88" y2="235.96"/>
				<line class="st10" x1="385.88" y1="235.96" x2="412.12" y2="235.96"/>
				<line class="st10" x1="412.12" y1="235.96" x2="412.12" y2="232.27"/>
			</g>
		</g>
	</g>
</g>
</svg>
