ISO-10303-21;
HEADER;

/* File generated by Shapr3D Version 26.81.0.10934 */

FILE_DESCRIPTION(('HOOPS Exchange Step'),'2;1');

FILE_NAME('/private/var/mobile/Containers/Data/Application/A1D00A3E-404F-4430-9116-94474F55FCE0/tmp/export/temp_export',
'2026-05-21T11:52:52-07:00',
('mobile'),
('Shapr3D Limited'),
'HOOPS Exchange 2026.3',
'Shapr3D',
'Authorized');

FILE_SCHEMA( ('AP242_MANAGED_MODEL_BASED_3D_ENGINEERING_MIM_LF {1 0 10303 442 1 1 4}') );

ENDSEC;

DATA;
#3=(NAMED_UNIT(*)PLANE_ANGLE_UNIT()SI_UNIT($,.RADIAN.));
#4=PLANE_ANGLE_MEASURE_WITH_UNIT(PLANE_ANGLE_MEASURE(0.0174532925),#3);
#5=(CONVERSION_BASED_UNIT('DEGREE',#4)NAMED_UNIT(#6)PLANE_ANGLE_UNIT());
#6=DIMENSIONAL_EXPONENTS(0.,0.,0.,0.,0.,0.,0.);
#7=(NAMED_UNIT(*)SI_UNIT($,.STERADIAN.)SOLID_ANGLE_UNIT());
#8=(LENGTH_UNIT()NAMED_UNIT(*)SI_UNIT(.MILLI.,.METRE.));
#9=UNCERTAINTY_MEASURE_WITH_UNIT(LENGTH_MEASURE(1.000000E-03),#8,'DISTANCE_ACCURACY_VALUE','Maximum Tolerance applied to model');
#10=(GEOMETRIC_REPRESENTATION_CONTEXT(3)GLOBAL_UNCERTAINTY_ASSIGNED_CONTEXT((#9))GLOBAL_UNIT_ASSIGNED_CONTEXT((#8,#5,#7))REPRESENTATION_CONTEXT('','root'));
#12=CARTESIAN_POINT('',(0.,0.,0.));
#13=DIRECTION('',(0.,0.,1.));
#14=DIRECTION('',(1.,0.,0.));
#15=AXIS2_PLACEMENT_3D('',#12,#13,#14);
#26=(NAMED_UNIT(*)PLANE_ANGLE_UNIT()SI_UNIT($,.RADIAN.));
#27=PLANE_ANGLE_MEASURE_WITH_UNIT(PLANE_ANGLE_MEASURE(0.0174532925),#26);
#28=(CONVERSION_BASED_UNIT('DEGREE',#27)NAMED_UNIT(#29)PLANE_ANGLE_UNIT());
#29=DIMENSIONAL_EXPONENTS(0.,0.,0.,0.,0.,0.,0.);
#30=(NAMED_UNIT(*)SI_UNIT($,.STERADIAN.)SOLID_ANGLE_UNIT());
#31=(LENGTH_UNIT()NAMED_UNIT(*)SI_UNIT(.MILLI.,.METRE.));
#32=UNCERTAINTY_MEASURE_WITH_UNIT(LENGTH_MEASURE(1.000000E-05),#31,'DISTANCE_ACCURACY_VALUE','Maximum Tolerance applied to model');
#33=(GEOMETRIC_REPRESENTATION_CONTEXT(3)GLOBAL_UNCERTAINTY_ASSIGNED_CONTEXT((#32))GLOBAL_UNIT_ASSIGNED_CONTEXT((#31,#28,#30))REPRESENTATION_CONTEXT('','case.step'));
#45=CARTESIAN_POINT('',(0.,0.,0.));
#46=DIRECTION('',(0.,0.,1.));
#47=DIRECTION('',(1.,0.,-0.));
#48=AXIS2_PLACEMENT_3D('',#45,#46,#47);
#49=ITEM_DEFINED_TRANSFORMATION('','',#48,#15);
#50=(REPRESENTATION_RELATIONSHIP('','',#35,#16)REPRESENTATION_RELATIONSHIP_WITH_TRANSFORMATION(#49)SHAPE_REPRESENTATION_RELATIONSHIP());
#51=NEXT_ASSEMBLY_USAGE_OCCURRENCE('case.step_1','case.step','case.step',#25,#44,$);
#52=PRODUCT_DEFINITION_SHAPE('','',#51);
#53=CONTEXT_DEPENDENT_SHAPE_REPRESENTATION(#50,#52);
#55=CARTESIAN_POINT('',(42.,36.,0.));
#56=DIRECTION('',(0.,-1.,0.));
#57=DIRECTION('',(-1.,-0.,0.));
#58=AXIS2_PLACEMENT_3D('',#55,#56,#57);
#59=PLANE('',#58);
#60=CARTESIAN_POINT('',(-38.,36.,0.));
#61=VERTEX_POINT('',#60);
#62=CARTESIAN_POINT('',(-38.,36.,30.1));
#63=VERTEX_POINT('',#62);
#64=CARTESIAN_POINT('',(-38.,36.,0.));
#65=DIRECTION('',(-0.,-0.,1.));
#66=VECTOR('',#65,30.1);
#67=LINE('',#64,#66);
#68=EDGE_CURVE('',#61,#63,#67,.T.);
#69=ORIENTED_EDGE('',*,*,#68,.T.);
#70=CARTESIAN_POINT('',(38.,36.,30.1));
#71=VERTEX_POINT('',#70);
#72=CARTESIAN_POINT('',(38.,36.,30.1));
#73=DIRECTION('',(-1.,-0.,-0.));
#74=VECTOR('',#73,76.);
#75=LINE('',#72,#74);
#76=EDGE_CURVE('',#71,#63,#75,.T.);
#77=ORIENTED_EDGE('',*,*,#76,.F.);
#78=CARTESIAN_POINT('',(38.,36.,0.));
#79=VERTEX_POINT('',#78);
#80=CARTESIAN_POINT('',(38.,36.,0.));
#81=DIRECTION('',(0.,0.,1.));
#82=VECTOR('',#81,30.1);
#83=LINE('',#80,#82);
#84=EDGE_CURVE('',#79,#71,#83,.T.);
#85=ORIENTED_EDGE('',*,*,#84,.F.);
#86=CARTESIAN_POINT('',(38.,36.,0.));
#87=DIRECTION('',(-1.,-0.,0.));
#88=VECTOR('',#87,76.);
#89=LINE('',#86,#88);
#90=EDGE_CURVE('',#79,#61,#89,.T.);
#91=ORIENTED_EDGE('',*,*,#90,.T.);
#92=EDGE_LOOP('',(#69,#77,#85,#91));
#93=FACE_BOUND('',#92,.T.);
#94=CARTESIAN_POINT('',(17.88,36.,5.08));
#95=VERTEX_POINT('',#94);
#96=CARTESIAN_POINT('',(17.88,36.,17.78));
#97=VERTEX_POINT('',#96);
#98=CARTESIAN_POINT('',(17.88,36.,5.08));
#99=DIRECTION('',(0.,0.,1.));
#100=VECTOR('',#99,12.7);
#101=LINE('',#98,#100);
#102=EDGE_CURVE('',#95,#97,#101,.T.);
#103=ORIENTED_EDGE('',*,*,#102,.T.);
#104=CARTESIAN_POINT('',(-27.84,36.,17.78));
#105=VERTEX_POINT('',#104);
#106=CARTESIAN_POINT('',(17.88,36.,17.78));
#107=DIRECTION('',(-1.,-0.,0.));
#108=VECTOR('',#107,45.72);
#109=LINE('',#106,#108);
#110=EDGE_CURVE('',#97,#105,#109,.T.);
#111=ORIENTED_EDGE('',*,*,#110,.T.);
#112=CARTESIAN_POINT('',(-27.84,36.,5.08));
#113=VERTEX_POINT('',#112);
#114=CARTESIAN_POINT('',(-27.84,36.,17.78));
#115=DIRECTION('',(-0.,-0.,-1.));
#116=VECTOR('',#115,12.7);
#117=LINE('',#114,#116);
#118=EDGE_CURVE('',#105,#113,#117,.T.);
#119=ORIENTED_EDGE('',*,*,#118,.T.);
#120=CARTESIAN_POINT('',(-27.84,36.,5.08));
#121=DIRECTION('',(1.,0.,-0.));
#122=VECTOR('',#121,45.72);
#123=LINE('',#120,#122);
#124=EDGE_CURVE('',#113,#95,#123,.T.);
#125=ORIENTED_EDGE('',*,*,#124,.T.);
#126=EDGE_LOOP('',(#103,#111,#119,#125));
#127=FACE_BOUND('',#126,.T.);
#128=ADVANCED_FACE('',(#93,#127),#59,.F.);
#129=CARTESIAN_POINT('',(40.,34.,2.));
#130=DIRECTION('',(0.,-1.,0.));
#131=DIRECTION('',(-1.,-0.,0.));
#132=AXIS2_PLACEMENT_3D('',#129,#130,#131);
#133=PLANE('',#132);
#134=CARTESIAN_POINT('',(40.,34.,2.));
#135=VERTEX_POINT('',#134);
#136=CARTESIAN_POINT('',(-40.,34.,2.));
#137=VERTEX_POINT('',#136);
#138=CARTESIAN_POINT('',(40.,34.,2.));
#139=DIRECTION('',(-1.,-0.,-0.));
#140=VECTOR('',#139,80.);
#141=LINE('',#138,#140);
#142=EDGE_CURVE('',#135,#137,#141,.T.);
#143=ORIENTED_EDGE('',*,*,#142,.F.);
#144=CARTESIAN_POINT('',(40.,34.,30.1));
#145=VERTEX_POINT('',#144);
#146=CARTESIAN_POINT('',(40.,34.,2.));
#147=DIRECTION('',(-0.,-0.,1.));
#148=VECTOR('',#147,28.1);
#149=LINE('',#146,#148);
#150=EDGE_CURVE('',#135,#145,#149,.T.);
#151=ORIENTED_EDGE('',*,*,#150,.T.);
#152=CARTESIAN_POINT('',(-40.,34.,30.1));
#153=VERTEX_POINT('',#152);
#154=CARTESIAN_POINT('',(-40.,34.,30.1));
#155=DIRECTION('',(1.,0.,0.));
#156=VECTOR('',#155,80.);
#157=LINE('',#154,#156);
#158=EDGE_CURVE('',#153,#145,#157,.T.);
#159=ORIENTED_EDGE('',*,*,#158,.F.);
#160=CARTESIAN_POINT('',(-40.,34.,2.));
#161=DIRECTION('',(-0.,-0.,1.));
#162=VECTOR('',#161,28.1);
#163=LINE('',#160,#162);
#164=EDGE_CURVE('',#137,#153,#163,.T.);
#165=ORIENTED_EDGE('',*,*,#164,.F.);
#166=EDGE_LOOP('',(#143,#151,#159,#165));
#167=FACE_BOUND('',#166,.T.);
#168=CARTESIAN_POINT('',(-27.84,34.,17.78));
#169=VERTEX_POINT('',#168);
#170=CARTESIAN_POINT('',(17.88,34.,17.78));
#171=VERTEX_POINT('',#170);
#172=CARTESIAN_POINT('',(-27.84,34.,17.78));
#173=DIRECTION('',(1.,0.,-0.));
#174=VECTOR('',#173,45.72);
#175=LINE('',#172,#174);
#176=EDGE_CURVE('',#169,#171,#175,.T.);
#177=ORIENTED_EDGE('',*,*,#176,.T.);
#178=CARTESIAN_POINT('',(17.88,34.,5.08));
#179=VERTEX_POINT('',#178);
#180=CARTESIAN_POINT('',(17.88,34.,17.78));
#181=DIRECTION('',(0.,0.,-1.));
#182=VECTOR('',#181,12.7);
#183=LINE('',#180,#182);
#184=EDGE_CURVE('',#171,#179,#183,.T.);
#185=ORIENTED_EDGE('',*,*,#184,.T.);
#186=CARTESIAN_POINT('',(-27.84,34.,5.08));
#187=VERTEX_POINT('',#186);
#188=CARTESIAN_POINT('',(17.88,34.,5.08));
#189=DIRECTION('',(-1.,-0.,0.));
#190=VECTOR('',#189,45.72);
#191=LINE('',#188,#190);
#192=EDGE_CURVE('',#179,#187,#191,.T.);
#193=ORIENTED_EDGE('',*,*,#192,.T.);
#194=CARTESIAN_POINT('',(-27.84,34.,5.08));
#195=DIRECTION('',(0.,0.,1.));
#196=VECTOR('',#195,12.7);
#197=LINE('',#194,#196);
#198=EDGE_CURVE('',#187,#169,#197,.T.);
#199=ORIENTED_EDGE('',*,*,#198,.T.);
#200=EDGE_LOOP('',(#177,#185,#193,#199));
#201=FACE_BOUND('',#200,.T.);
#202=ADVANCED_FACE('',(#167,#201),#133,.T.);
#203=CARTESIAN_POINT('',(-42.5,-7.,1.999963379));
#204=DIRECTION('',(0.,0.,-1.));
#205=DIRECTION('',(0.,-1.,0.));
#206=AXIS2_PLACEMENT_3D('',#203,#204,#205);
#207=PLANE('',#206);
#208=CARTESIAN_POINT('',(-40.,-21.,1.999963379));
#209=VERTEX_POINT('',#208);
#210=CARTESIAN_POINT('',(-40.,-7.,1.999963379));
#211=VERTEX_POINT('',#210);
#212=CARTESIAN_POINT('',(-40.,-21.,1.999963379));
#213=DIRECTION('',(-0.,1.,0.));
#214=VECTOR('',#213,14.);
#215=LINE('',#212,#214);
#216=EDGE_CURVE('',#209,#211,#215,.T.);
#217=ORIENTED_EDGE('',*,*,#216,.F.);
#218=CARTESIAN_POINT('',(-38.5,-21.,1.999963379));
#219=VERTEX_POINT('',#218);
#220=CARTESIAN_POINT('',(-40.,-21.,1.999963379));
#221=DIRECTION('',(1.,0.,0.));
#222=VECTOR('',#221,1.5);
#223=LINE('',#220,#222);
#224=EDGE_CURVE('',#209,#219,#223,.T.);
#225=ORIENTED_EDGE('',*,*,#224,.T.);
#226=CARTESIAN_POINT('',(-38.5,-7.,1.999963379));
#227=VERTEX_POINT('',#226);
#228=CARTESIAN_POINT('',(-38.5,-7.,1.999963379));
#229=DIRECTION('',(0.,-1.,0.));
#230=VECTOR('',#229,14.);
#231=LINE('',#228,#230);
#232=EDGE_CURVE('',#227,#219,#231,.T.);
#233=ORIENTED_EDGE('',*,*,#232,.F.);
#234=CARTESIAN_POINT('',(-40.,-7.,1.999963379));
#235=DIRECTION('',(1.,0.,0.));
#236=VECTOR('',#235,1.5);
#237=LINE('',#234,#236);
#238=EDGE_CURVE('',#211,#227,#237,.T.);
#239=ORIENTED_EDGE('',*,*,#238,.F.);
#240=EDGE_LOOP('',(#217,#225,#233,#239));
#241=FACE_BOUND('',#240,.T.);
#242=ADVANCED_FACE('',(#241),#207,.F.);
#243=CARTESIAN_POINT('',(-40.,34.,2.));
#244=DIRECTION('',(1.,0.,0.));
#245=DIRECTION('',(0.,-1.,0.));
#246=AXIS2_PLACEMENT_3D('',#243,#244,#245);
#247=PLANE('',#246);
#248=CARTESIAN_POINT('',(-40.,-21.,2.));
#249=VERTEX_POINT('',#248);
#250=CARTESIAN_POINT('',(-40.,-21.,1.999963379));
#251=DIRECTION('',(0.,0.,1.));
#252=VECTOR('',#251,0.000036621);
#253=LINE('',#250,#252);
#254=EDGE_CURVE('',#209,#249,#253,.T.);
#255=ORIENTED_EDGE('',*,*,#254,.F.);
#256=ORIENTED_EDGE('',*,*,#216,.T.);
#257=CARTESIAN_POINT('',(-40.,-7.,2.));
#258=VERTEX_POINT('',#257);
#259=CARTESIAN_POINT('',(-40.,-7.,2.));
#260=DIRECTION('',(0.,0.,-1.));
#261=VECTOR('',#260,0.000036621);
#262=LINE('',#259,#261);
#263=EDGE_CURVE('',#258,#211,#262,.T.);
#264=ORIENTED_EDGE('',*,*,#263,.F.);
#265=CARTESIAN_POINT('',(-40.,34.,2.));
#266=DIRECTION('',(0.,-1.,0.));
#267=VECTOR('',#266,41.);
#268=LINE('',#265,#267);
#269=EDGE_CURVE('',#137,#258,#268,.T.);
#270=ORIENTED_EDGE('',*,*,#269,.F.);
#271=ORIENTED_EDGE('',*,*,#164,.T.);
#272=CARTESIAN_POINT('',(-40.,-34.,30.1));
#273=VERTEX_POINT('',#272);
#274=CARTESIAN_POINT('',(-40.,-34.,30.1));
#275=DIRECTION('',(-0.,1.,-0.));
#276=VECTOR('',#275,68.);
#277=LINE('',#274,#276);
#278=EDGE_CURVE('',#273,#153,#277,.T.);
#279=ORIENTED_EDGE('',*,*,#278,.F.);
#280=CARTESIAN_POINT('',(-40.,-34.,2.));
#281=VERTEX_POINT('',#280);
#282=CARTESIAN_POINT('',(-40.,-34.,2.));
#283=DIRECTION('',(-0.,-0.,1.));
#284=VECTOR('',#283,28.1);
#285=LINE('',#282,#284);
#286=EDGE_CURVE('',#281,#273,#285,.T.);
#287=ORIENTED_EDGE('',*,*,#286,.F.);
#288=CARTESIAN_POINT('',(-40.,-21.,2.));
#289=DIRECTION('',(0.,-1.,0.));
#290=VECTOR('',#289,13.);
#291=LINE('',#288,#290);
#292=EDGE_CURVE('',#249,#281,#291,.T.);
#293=ORIENTED_EDGE('',*,*,#292,.F.);
#294=EDGE_LOOP('',(#255,#256,#264,#270,#271,#279,#287,#293));
#295=FACE_BOUND('',#294,.T.);
#296=ADVANCED_FACE('',(#295),#247,.T.);
#297=CARTESIAN_POINT('',(42.,-36.,0.));
#298=DIRECTION('',(-1.,-0.,0.));
#299=DIRECTION('',(-0.,1.,0.));
#300=AXIS2_PLACEMENT_3D('',#297,#298,#299);
#301=PLANE('',#300);
#302=CARTESIAN_POINT('',(42.,-32.,30.1));
#303=VERTEX_POINT('',#302);
#304=CARTESIAN_POINT('',(42.,32.,30.1));
#305=VERTEX_POINT('',#304);
#306=CARTESIAN_POINT('',(42.,-32.,30.1));
#307=DIRECTION('',(-0.,1.,-0.));
#308=VECTOR('',#307,64.);
#309=LINE('',#306,#308);
#310=EDGE_CURVE('',#303,#305,#309,.T.);
#311=ORIENTED_EDGE('',*,*,#310,.F.);
#312=CARTESIAN_POINT('',(42.,-32.,0.));
#313=VERTEX_POINT('',#312);
#314=CARTESIAN_POINT('',(42.,-32.,0.));
#315=DIRECTION('',(0.,0.,1.));
#316=VECTOR('',#315,30.1);
#317=LINE('',#314,#316);
#318=EDGE_CURVE('',#313,#303,#317,.T.);
#319=ORIENTED_EDGE('',*,*,#318,.F.);
#320=CARTESIAN_POINT('',(42.,32.,0.));
#321=VERTEX_POINT('',#320);
#322=CARTESIAN_POINT('',(42.,-32.,0.));
#323=DIRECTION('',(-0.,1.,0.));
#324=VECTOR('',#323,64.);
#325=LINE('',#322,#324);
#326=EDGE_CURVE('',#313,#321,#325,.T.);
#327=ORIENTED_EDGE('',*,*,#326,.T.);
#328=CARTESIAN_POINT('',(42.,32.,0.));
#329=DIRECTION('',(-0.,-0.,1.));
#330=VECTOR('',#329,30.1);
#331=LINE('',#328,#330);
#332=EDGE_CURVE('',#321,#305,#331,.T.);
#333=ORIENTED_EDGE('',*,*,#332,.T.);
#334=EDGE_LOOP('',(#311,#319,#327,#333));
#335=FACE_BOUND('',#334,.T.);
#336=CARTESIAN_POINT('',(42.,-6.99878,5.40104));
#337=VERTEX_POINT('',#336);
#338=CARTESIAN_POINT('',(42.,-6.99878,1.41324));
#339=VERTEX_POINT('',#338);
#340=CARTESIAN_POINT('',(42.,-6.99878,5.40104));
#341=DIRECTION('',(-0.,0.,-1.));
#342=VECTOR('',#341,3.9878);
#343=LINE('',#340,#342);
#344=EDGE_CURVE('',#337,#339,#343,.T.);
#345=ORIENTED_EDGE('',*,*,#344,.T.);
#346=CARTESIAN_POINT('',(42.,-20.99926,1.41324));
#347=VERTEX_POINT('',#346);
#348=CARTESIAN_POINT('',(42.,-6.99878,1.41324));
#349=DIRECTION('',(0.,-1.,-0.));
#350=VECTOR('',#349,14.00048);
#351=LINE('',#348,#350);
#352=EDGE_CURVE('',#339,#347,#351,.T.);
#353=ORIENTED_EDGE('',*,*,#352,.T.);
#354=CARTESIAN_POINT('',(42.,-20.99926,5.40104));
#355=VERTEX_POINT('',#354);
#356=CARTESIAN_POINT('',(42.,-20.99926,1.41324));
#357=DIRECTION('',(0.,0.,1.));
#358=VECTOR('',#357,3.9878);
#359=LINE('',#356,#358);
#360=EDGE_CURVE('',#347,#355,#359,.T.);
#361=ORIENTED_EDGE('',*,*,#360,.T.);
#362=CARTESIAN_POINT('',(42.,-20.99926,5.40104));
#363=DIRECTION('',(-0.,1.,0.));
#364=VECTOR('',#363,14.00048);
#365=LINE('',#362,#364);
#366=EDGE_CURVE('',#355,#337,#365,.T.);
#367=ORIENTED_EDGE('',*,*,#366,.T.);
#368=EDGE_LOOP('',(#345,#353,#361,#367));
#369=FACE_BOUND('',#368,.T.);
#370=ADVANCED_FACE('',(#335,#369),#301,.F.);
#371=CARTESIAN_POINT('',(40.,-34.,2.));
#372=DIRECTION('',(-1.,-0.,0.));
#373=DIRECTION('',(-0.,1.,0.));
#374=AXIS2_PLACEMENT_3D('',#371,#372,#373);
#375=PLANE('',#374);
#376=CARTESIAN_POINT('',(40.,-6.99878,2.));
#377=VERTEX_POINT('',#376);
#378=CARTESIAN_POINT('',(40.,-6.99878,2.));
#379=DIRECTION('',(-0.,1.,-0.));
#380=VECTOR('',#379,40.99878);
#381=LINE('',#378,#380);
#382=EDGE_CURVE('',#377,#135,#381,.T.);
#383=ORIENTED_EDGE('',*,*,#382,.F.);
#384=CARTESIAN_POINT('',(40.,-6.99878,5.40104));
#385=VERTEX_POINT('',#384);
#386=CARTESIAN_POINT('',(40.,-6.99878,2.));
#387=DIRECTION('',(0.,-0.,1.));
#388=VECTOR('',#387,3.40104);
#389=LINE('',#386,#388);
#390=EDGE_CURVE('',#377,#385,#389,.T.);
#391=ORIENTED_EDGE('',*,*,#390,.T.);
#392=CARTESIAN_POINT('',(40.,-20.99926,5.40104));
#393=VERTEX_POINT('',#392);
#394=CARTESIAN_POINT('',(40.,-6.99878,5.40104));
#395=DIRECTION('',(0.,-1.,-0.));
#396=VECTOR('',#395,14.00048);
#397=LINE('',#394,#396);
#398=EDGE_CURVE('',#385,#393,#397,.T.);
#399=ORIENTED_EDGE('',*,*,#398,.T.);
#400=CARTESIAN_POINT('',(40.,-20.99926,2.));
#401=VERTEX_POINT('',#400);
#402=CARTESIAN_POINT('',(40.,-20.99926,5.40104));
#403=DIRECTION('',(0.,0.,-1.));
#404=VECTOR('',#403,3.40104);
#405=LINE('',#402,#404);
#406=EDGE_CURVE('',#393,#401,#405,.T.);
#407=ORIENTED_EDGE('',*,*,#406,.T.);
#408=CARTESIAN_POINT('',(40.,-34.,2.));
#409=VERTEX_POINT('',#408);
#410=CARTESIAN_POINT('',(40.,-34.,2.));
#411=DIRECTION('',(-0.,1.,-0.));
#412=VECTOR('',#411,13.00074);
#413=LINE('',#410,#412);
#414=EDGE_CURVE('',#409,#401,#413,.T.);
#415=ORIENTED_EDGE('',*,*,#414,.F.);
#416=CARTESIAN_POINT('',(40.,-34.,30.1));
#417=VERTEX_POINT('',#416);
#418=CARTESIAN_POINT('',(40.,-34.,2.));
#419=DIRECTION('',(-0.,-0.,1.));
#420=VECTOR('',#419,28.1);
#421=LINE('',#418,#420);
#422=EDGE_CURVE('',#409,#417,#421,.T.);
#423=ORIENTED_EDGE('',*,*,#422,.T.);
#424=CARTESIAN_POINT('',(40.,34.,30.1));
#425=DIRECTION('',(0.,-1.,0.));
#426=VECTOR('',#425,68.);
#427=LINE('',#424,#426);
#428=EDGE_CURVE('',#145,#417,#427,.T.);
#429=ORIENTED_EDGE('',*,*,#428,.F.);
#430=ORIENTED_EDGE('',*,*,#150,.F.);
#431=EDGE_LOOP('',(#383,#391,#399,#407,#415,#423,#429,#430));
#432=FACE_BOUND('',#431,.T.);
#433=ADVANCED_FACE('',(#432),#375,.T.);
#434=CARTESIAN_POINT('',(0.,0.,2.));
#435=DIRECTION('',(0.,0.,1.));
#436=DIRECTION('',(0.,-1.,0.));
#437=AXIS2_PLACEMENT_3D('',#434,#435,#436);
#438=PLANE('',#437);
#439=CARTESIAN_POINT('',(-22.91,16.47,2.));
#440=VERTEX_POINT('',#439);
#441=CARTESIAN_POINT('',(-26.66,20.22,2.));
#442=VERTEX_POINT('',#441);
#443=CARTESIAN_POINT('',(-22.91,20.22,2.));
#444=DIRECTION('',(-0.,-0.,1.));
#445=DIRECTION('',(-1.,0.,0.));
#446=AXIS2_PLACEMENT_3D('',#443,#444,#445);
#447=CIRCLE('',#446,3.75);
#448=EDGE_CURVE('',#440,#442,#447,.T.);
#449=ORIENTED_EDGE('',*,*,#448,.F.);
#450=CARTESIAN_POINT('',(-22.91,20.22,2.));
#451=DIRECTION('',(-0.,-0.,1.));
#452=DIRECTION('',(-1.,0.,0.));
#453=AXIS2_PLACEMENT_3D('',#450,#451,#452);
#454=CIRCLE('',#453,3.75);
#455=EDGE_CURVE('',#442,#440,#454,.T.);
#456=ORIENTED_EDGE('',*,*,#455,.F.);
#457=EDGE_LOOP('',(#449,#456));
#458=FACE_BOUND('',#457,.T.);
#459=CARTESIAN_POINT('',(-24.,-5.,2.));
#460=VERTEX_POINT('',#459);
#461=CARTESIAN_POINT('',(-26.5,-2.5,2.));
#462=VERTEX_POINT('',#461);
#463=CARTESIAN_POINT('',(-24.,-2.5,2.));
#464=DIRECTION('',(-0.,-0.,1.));
#465=DIRECTION('',(-1.,0.,0.));
#466=AXIS2_PLACEMENT_3D('',#463,#464,#465);
#467=CIRCLE('',#466,2.5);
#468=EDGE_CURVE('',#460,#462,#467,.T.);
#469=ORIENTED_EDGE('',*,*,#468,.F.);
#470=CARTESIAN_POINT('',(-24.,-2.5,2.));
#471=DIRECTION('',(-0.,-0.,1.));
#472=DIRECTION('',(-1.,0.,0.));
#473=AXIS2_PLACEMENT_3D('',#470,#471,#472);
#474=CIRCLE('',#473,2.5);
#475=EDGE_CURVE('',#462,#460,#474,.T.);
#476=ORIENTED_EDGE('',*,*,#475,.F.);
#477=EDGE_LOOP('',(#469,#476));
#478=FACE_BOUND('',#477,.T.);
#479=CARTESIAN_POINT('',(-24.,-28.,2.));
#480=VERTEX_POINT('',#479);
#481=CARTESIAN_POINT('',(-26.5,-25.5,2.));
#482=VERTEX_POINT('',#481);
#483=CARTESIAN_POINT('',(-24.,-25.5,2.));
#484=DIRECTION('',(-0.,-0.,1.));
#485=DIRECTION('',(-1.,0.,0.));
#486=AXIS2_PLACEMENT_3D('',#483,#484,#485);
#487=CIRCLE('',#486,2.5);
#488=EDGE_CURVE('',#480,#482,#487,.T.);
#489=ORIENTED_EDGE('',*,*,#488,.F.);
#490=CARTESIAN_POINT('',(-24.,-25.5,2.));
#491=DIRECTION('',(-0.,-0.,1.));
#492=DIRECTION('',(-1.,0.,0.));
#493=AXIS2_PLACEMENT_3D('',#490,#491,#492);
#494=CIRCLE('',#493,2.5);
#495=EDGE_CURVE('',#482,#480,#494,.T.);
#496=ORIENTED_EDGE('',*,*,#495,.F.);
#497=EDGE_LOOP('',(#489,#496));
#498=FACE_BOUND('',#497,.T.);
#499=CARTESIAN_POINT('',(15.,-5.,2.));
#500=VERTEX_POINT('',#499);
#501=CARTESIAN_POINT('',(-15.,-5.,2.));
#502=VERTEX_POINT('',#501);
#503=CARTESIAN_POINT('',(15.,-5.,2.));
#504=DIRECTION('',(-1.,-0.,-0.));
#505=VECTOR('',#504,30.);
#506=LINE('',#503,#505);
#507=EDGE_CURVE('',#500,#502,#506,.T.);
#508=ORIENTED_EDGE('',*,*,#507,.T.);
#509=CARTESIAN_POINT('',(-15.,-3.,2.));
#510=VERTEX_POINT('',#509);
#511=CARTESIAN_POINT('',(-15.,-5.,2.));
#512=DIRECTION('',(-0.,1.,-0.));
#513=VECTOR('',#512,2.);
#514=LINE('',#511,#513);
#515=EDGE_CURVE('',#502,#510,#514,.T.);
#516=ORIENTED_EDGE('',*,*,#515,.T.);
#517=CARTESIAN_POINT('',(15.,-3.,2.));
#518=VERTEX_POINT('',#517);
#519=CARTESIAN_POINT('',(-15.,-3.,2.));
#520=DIRECTION('',(1.,0.,0.));
#521=VECTOR('',#520,30.);
#522=LINE('',#519,#521);
#523=EDGE_CURVE('',#510,#518,#522,.T.);
#524=ORIENTED_EDGE('',*,*,#523,.T.);
#525=CARTESIAN_POINT('',(15.,-3.,2.));
#526=DIRECTION('',(0.,-1.,0.));
#527=VECTOR('',#526,2.);
#528=LINE('',#525,#527);
#529=EDGE_CURVE('',#518,#500,#528,.T.);
#530=ORIENTED_EDGE('',*,*,#529,.T.);
#531=EDGE_LOOP('',(#508,#516,#524,#530));
#532=FACE_BOUND('',#531,.T.);
#533=CARTESIAN_POINT('',(15.,-9.,2.));
#534=VERTEX_POINT('',#533);
#535=CARTESIAN_POINT('',(-15.,-9.,2.));
#536=VERTEX_POINT('',#535);
#537=CARTESIAN_POINT('',(15.,-9.,2.));
#538=DIRECTION('',(-1.,-0.,-0.));
#539=VECTOR('',#538,30.);
#540=LINE('',#537,#539);
#541=EDGE_CURVE('',#534,#536,#540,.T.);
#542=ORIENTED_EDGE('',*,*,#541,.T.);
#543=CARTESIAN_POINT('',(-15.,-7.,2.));
#544=VERTEX_POINT('',#543);
#545=CARTESIAN_POINT('',(-15.,-9.,2.));
#546=DIRECTION('',(-0.,1.,-0.));
#547=VECTOR('',#546,2.);
#548=LINE('',#545,#547);
#549=EDGE_CURVE('',#536,#544,#548,.T.);
#550=ORIENTED_EDGE('',*,*,#549,.T.);
#551=CARTESIAN_POINT('',(15.,-7.,2.));
#552=VERTEX_POINT('',#551);
#553=CARTESIAN_POINT('',(-15.,-7.,2.));
#554=DIRECTION('',(1.,0.,0.));
#555=VECTOR('',#554,30.);
#556=LINE('',#553,#555);
#557=EDGE_CURVE('',#544,#552,#556,.T.);
#558=ORIENTED_EDGE('',*,*,#557,.T.);
#559=CARTESIAN_POINT('',(15.,-7.,2.));
#560=DIRECTION('',(0.,-1.,0.));
#561=VECTOR('',#560,2.);
#562=LINE('',#559,#561);
#563=EDGE_CURVE('',#552,#534,#562,.T.);
#564=ORIENTED_EDGE('',*,*,#563,.T.);
#565=EDGE_LOOP('',(#542,#550,#558,#564));
#566=FACE_BOUND('',#565,.T.);
#567=CARTESIAN_POINT('',(15.,-13.,2.));
#568=VERTEX_POINT('',#567);
#569=CARTESIAN_POINT('',(-15.,-13.,2.));
#570=VERTEX_POINT('',#569);
#571=CARTESIAN_POINT('',(15.,-13.,2.));
#572=DIRECTION('',(-1.,-0.,-0.));
#573=VECTOR('',#572,30.);
#574=LINE('',#571,#573);
#575=EDGE_CURVE('',#568,#570,#574,.T.);
#576=ORIENTED_EDGE('',*,*,#575,.T.);
#577=CARTESIAN_POINT('',(-15.,-11.,2.));
#578=VERTEX_POINT('',#577);
#579=CARTESIAN_POINT('',(-15.,-13.,2.));
#580=DIRECTION('',(-0.,1.,-0.));
#581=VECTOR('',#580,2.);
#582=LINE('',#579,#581);
#583=EDGE_CURVE('',#570,#578,#582,.T.);
#584=ORIENTED_EDGE('',*,*,#583,.T.);
#585=CARTESIAN_POINT('',(15.,-11.,2.));
#586=VERTEX_POINT('',#585);
#587=CARTESIAN_POINT('',(-15.,-11.,2.));
#588=DIRECTION('',(1.,0.,0.));
#589=VECTOR('',#588,30.);
#590=LINE('',#587,#589);
#591=EDGE_CURVE('',#578,#586,#590,.T.);
#592=ORIENTED_EDGE('',*,*,#591,.T.);
#593=CARTESIAN_POINT('',(15.,-11.,2.));
#594=DIRECTION('',(0.,-1.,0.));
#595=VECTOR('',#594,2.);
#596=LINE('',#593,#595);
#597=EDGE_CURVE('',#586,#568,#596,.T.);
#598=ORIENTED_EDGE('',*,*,#597,.T.);
#599=EDGE_LOOP('',(#576,#584,#592,#598));
#600=FACE_BOUND('',#599,.T.);
#601=CARTESIAN_POINT('',(15.,-17.,2.));
#602=VERTEX_POINT('',#601);
#603=CARTESIAN_POINT('',(-15.,-17.,2.));
#604=VERTEX_POINT('',#603);
#605=CARTESIAN_POINT('',(15.,-17.,2.));
#606=DIRECTION('',(-1.,-0.,-0.));
#607=VECTOR('',#606,30.);
#608=LINE('',#605,#607);
#609=EDGE_CURVE('',#602,#604,#608,.T.);
#610=ORIENTED_EDGE('',*,*,#609,.T.);
#611=CARTESIAN_POINT('',(-15.,-15.,2.));
#612=VERTEX_POINT('',#611);
#613=CARTESIAN_POINT('',(-15.,-17.,2.));
#614=DIRECTION('',(-0.,1.,-0.));
#615=VECTOR('',#614,2.);
#616=LINE('',#613,#615);
#617=EDGE_CURVE('',#604,#612,#616,.T.);
#618=ORIENTED_EDGE('',*,*,#617,.T.);
#619=CARTESIAN_POINT('',(15.,-15.,2.));
#620=VERTEX_POINT('',#619);
#621=CARTESIAN_POINT('',(-15.,-15.,2.));
#622=DIRECTION('',(1.,0.,0.));
#623=VECTOR('',#622,30.);
#624=LINE('',#621,#623);
#625=EDGE_CURVE('',#612,#620,#624,.T.);
#626=ORIENTED_EDGE('',*,*,#625,.T.);
#627=CARTESIAN_POINT('',(15.,-15.,2.));
#628=DIRECTION('',(0.,-1.,0.));
#629=VECTOR('',#628,2.);
#630=LINE('',#627,#629);
#631=EDGE_CURVE('',#620,#602,#630,.T.);
#632=ORIENTED_EDGE('',*,*,#631,.T.);
#633=EDGE_LOOP('',(#610,#618,#626,#632));
#634=FACE_BOUND('',#633,.T.);
#635=CARTESIAN_POINT('',(15.,-21.,2.));
#636=VERTEX_POINT('',#635);
#637=CARTESIAN_POINT('',(-15.,-21.,2.));
#638=VERTEX_POINT('',#637);
#639=CARTESIAN_POINT('',(15.,-21.,2.));
#640=DIRECTION('',(-1.,-0.,-0.));
#641=VECTOR('',#640,30.);
#642=LINE('',#639,#641);
#643=EDGE_CURVE('',#636,#638,#642,.T.);
#644=ORIENTED_EDGE('',*,*,#643,.T.);
#645=CARTESIAN_POINT('',(-15.,-19.,2.));
#646=VERTEX_POINT('',#645);
#647=CARTESIAN_POINT('',(-15.,-21.,2.));
#648=DIRECTION('',(-0.,1.,-0.));
#649=VECTOR('',#648,2.);
#650=LINE('',#647,#649);
#651=EDGE_CURVE('',#638,#646,#650,.T.);
#652=ORIENTED_EDGE('',*,*,#651,.T.);
#653=CARTESIAN_POINT('',(15.,-19.,2.));
#654=VERTEX_POINT('',#653);
#655=CARTESIAN_POINT('',(-15.,-19.,2.));
#656=DIRECTION('',(1.,0.,0.));
#657=VECTOR('',#656,30.);
#658=LINE('',#655,#657);
#659=EDGE_CURVE('',#646,#654,#658,.T.);
#660=ORIENTED_EDGE('',*,*,#659,.T.);
#661=CARTESIAN_POINT('',(15.,-19.,2.));
#662=DIRECTION('',(0.,-1.,0.));
#663=VECTOR('',#662,2.);
#664=LINE('',#661,#663);
#665=EDGE_CURVE('',#654,#636,#664,.T.);
#666=ORIENTED_EDGE('',*,*,#665,.T.);
#667=EDGE_LOOP('',(#644,#652,#660,#666));
#668=FACE_BOUND('',#667,.T.);
#669=CARTESIAN_POINT('',(15.,-25.,2.));
#670=VERTEX_POINT('',#669);
#671=CARTESIAN_POINT('',(-15.,-25.,2.));
#672=VERTEX_POINT('',#671);
#673=CARTESIAN_POINT('',(15.,-25.,2.));
#674=DIRECTION('',(-1.,-0.,-0.));
#675=VECTOR('',#674,30.);
#676=LINE('',#673,#675);
#677=EDGE_CURVE('',#670,#672,#676,.T.);
#678=ORIENTED_EDGE('',*,*,#677,.T.);
#679=CARTESIAN_POINT('',(-15.,-23.,2.));
#680=VERTEX_POINT('',#679);
#681=CARTESIAN_POINT('',(-15.,-25.,2.));
#682=DIRECTION('',(-0.,1.,-0.));
#683=VECTOR('',#682,2.);
#684=LINE('',#681,#683);
#685=EDGE_CURVE('',#672,#680,#684,.T.);
#686=ORIENTED_EDGE('',*,*,#685,.T.);
#687=CARTESIAN_POINT('',(15.,-23.,2.));
#688=VERTEX_POINT('',#687);
#689=CARTESIAN_POINT('',(-15.,-23.,2.));
#690=DIRECTION('',(1.,0.,0.));
#691=VECTOR('',#690,30.);
#692=LINE('',#689,#691);
#693=EDGE_CURVE('',#680,#688,#692,.T.);
#694=ORIENTED_EDGE('',*,*,#693,.T.);
#695=CARTESIAN_POINT('',(15.,-23.,2.));
#696=DIRECTION('',(0.,-1.,0.));
#697=VECTOR('',#696,2.);
#698=LINE('',#695,#697);
#699=EDGE_CURVE('',#688,#670,#698,.T.);
#700=ORIENTED_EDGE('',*,*,#699,.T.);
#701=EDGE_LOOP('',(#678,#686,#694,#700));
#702=FACE_BOUND('',#701,.T.);
#703=CARTESIAN_POINT('',(35.1,16.47,2.));
#704=VERTEX_POINT('',#703);
#705=CARTESIAN_POINT('',(31.35,20.22,2.));
#706=VERTEX_POINT('',#705);
#707=CARTESIAN_POINT('',(35.1,20.22,2.));
#708=DIRECTION('',(-0.,-0.,1.));
#709=DIRECTION('',(-1.,0.,0.));
#710=AXIS2_PLACEMENT_3D('',#707,#708,#709);
#711=CIRCLE('',#710,3.75);
#712=EDGE_CURVE('',#704,#706,#711,.T.);
#713=ORIENTED_EDGE('',*,*,#712,.F.);
#714=CARTESIAN_POINT('',(35.1,20.22,2.));
#715=DIRECTION('',(-0.,-0.,1.));
#716=DIRECTION('',(-1.,0.,0.));
#717=AXIS2_PLACEMENT_3D('',#714,#715,#716);
#718=CIRCLE('',#717,3.75);
#719=EDGE_CURVE('',#706,#704,#718,.T.);
#720=ORIENTED_EDGE('',*,*,#719,.F.);
#721=EDGE_LOOP('',(#713,#720));
#722=FACE_BOUND('',#721,.T.);
#723=CARTESIAN_POINT('',(34.,-5.,2.));
#724=VERTEX_POINT('',#723);
#725=CARTESIAN_POINT('',(31.5,-2.5,2.));
#726=VERTEX_POINT('',#725);
#727=CARTESIAN_POINT('',(34.,-2.5,2.));
#728=DIRECTION('',(-0.,-0.,1.));
#729=DIRECTION('',(-1.,0.,0.));
#730=AXIS2_PLACEMENT_3D('',#727,#728,#729);
#731=CIRCLE('',#730,2.5);
#732=EDGE_CURVE('',#724,#726,#731,.T.);
#733=ORIENTED_EDGE('',*,*,#732,.F.);
#734=CARTESIAN_POINT('',(34.,-2.5,2.));
#735=DIRECTION('',(-0.,-0.,1.));
#736=DIRECTION('',(-1.,0.,0.));
#737=AXIS2_PLACEMENT_3D('',#734,#735,#736);
#738=CIRCLE('',#737,2.5);
#739=EDGE_CURVE('',#726,#724,#738,.T.);
#740=ORIENTED_EDGE('',*,*,#739,.F.);
#741=EDGE_LOOP('',(#733,#740));
#742=FACE_BOUND('',#741,.T.);
#743=CARTESIAN_POINT('',(34.,-28.,2.));
#744=VERTEX_POINT('',#743);
#745=CARTESIAN_POINT('',(31.5,-25.5,2.));
#746=VERTEX_POINT('',#745);
#747=CARTESIAN_POINT('',(34.,-25.5,2.));
#748=DIRECTION('',(-0.,-0.,1.));
#749=DIRECTION('',(-1.,0.,0.));
#750=AXIS2_PLACEMENT_3D('',#747,#748,#749);
#751=CIRCLE('',#750,2.5);
#752=EDGE_CURVE('',#744,#746,#751,.T.);
#753=ORIENTED_EDGE('',*,*,#752,.F.);
#754=CARTESIAN_POINT('',(34.,-25.5,2.));
#755=DIRECTION('',(-0.,-0.,1.));
#756=DIRECTION('',(-1.,0.,0.));
#757=AXIS2_PLACEMENT_3D('',#754,#755,#756);
#758=CIRCLE('',#757,2.5);
#759=EDGE_CURVE('',#746,#744,#758,.T.);
#760=ORIENTED_EDGE('',*,*,#759,.F.);
#761=EDGE_LOOP('',(#753,#760));
#762=FACE_BOUND('',#761,.T.);
#763=CARTESIAN_POINT('',(38.49988,-20.99926,2.));
#764=VERTEX_POINT('',#763);
#765=CARTESIAN_POINT('',(38.49988,-6.99878,2.));
#766=VERTEX_POINT('',#765);
#767=CARTESIAN_POINT('',(38.49988,-20.99926,2.));
#768=DIRECTION('',(-0.,1.,0.));
#769=VECTOR('',#768,14.00048);
#770=LINE('',#767,#769);
#771=EDGE_CURVE('',#764,#766,#770,.T.);
#772=ORIENTED_EDGE('',*,*,#771,.T.);
#773=CARTESIAN_POINT('',(38.49988,-6.99878,2.));
#774=DIRECTION('',(1.,0.,0.));
#775=VECTOR('',#774,1.50012);
#776=LINE('',#773,#775);
#777=EDGE_CURVE('',#766,#377,#776,.T.);
#778=ORIENTED_EDGE('',*,*,#777,.T.);
#779=ORIENTED_EDGE('',*,*,#382,.T.);
#780=ORIENTED_EDGE('',*,*,#142,.T.);
#781=ORIENTED_EDGE('',*,*,#269,.T.);
#782=CARTESIAN_POINT('',(-38.5,-7.,2.));
#783=VERTEX_POINT('',#782);
#784=CARTESIAN_POINT('',(-38.5,-7.,2.));
#785=DIRECTION('',(-1.,-0.,0.));
#786=VECTOR('',#785,1.5);
#787=LINE('',#784,#786);
#788=EDGE_CURVE('',#783,#258,#787,.T.);
#789=ORIENTED_EDGE('',*,*,#788,.F.);
#790=CARTESIAN_POINT('',(-38.5,-21.,2.));
#791=VERTEX_POINT('',#790);
#792=CARTESIAN_POINT('',(-38.5,-7.,2.));
#793=DIRECTION('',(0.,-1.,0.));
#794=VECTOR('',#793,14.);
#795=LINE('',#792,#794);
#796=EDGE_CURVE('',#783,#791,#795,.T.);
#797=ORIENTED_EDGE('',*,*,#796,.T.);
#798=CARTESIAN_POINT('',(-40.,-21.,2.));
#799=DIRECTION('',(1.,0.,-0.));
#800=VECTOR('',#799,1.5);
#801=LINE('',#798,#800);
#802=EDGE_CURVE('',#249,#791,#801,.T.);
#803=ORIENTED_EDGE('',*,*,#802,.F.);
#804=ORIENTED_EDGE('',*,*,#292,.T.);
#805=CARTESIAN_POINT('',(-40.,-34.,2.));
#806=DIRECTION('',(1.,0.,0.));
#807=VECTOR('',#806,80.);
#808=LINE('',#805,#807);
#809=EDGE_CURVE('',#281,#409,#808,.T.);
#810=ORIENTED_EDGE('',*,*,#809,.T.);
#811=ORIENTED_EDGE('',*,*,#414,.T.);
#812=CARTESIAN_POINT('',(40.,-20.99926,2.));
#813=DIRECTION('',(-1.,-0.,0.));
#814=VECTOR('',#813,1.50012);
#815=LINE('',#812,#814);
#816=EDGE_CURVE('',#401,#764,#815,.T.);
#817=ORIENTED_EDGE('',*,*,#816,.T.);
#818=EDGE_LOOP('',(#772,#778,#779,#780,#781,#789,#797,#803,#804,#810,#811,#817));
#819=FACE_BOUND('',#818,.T.);
#820=ADVANCED_FACE('',(#458,#478,#498,#532,#566,#600,#634,#668,#702,#722,#742,#762,#819),#438,.T.);
#821=CARTESIAN_POINT('',(-42.,36.,0.));
#822=DIRECTION('',(1.,0.,0.));
#823=DIRECTION('',(0.,-1.,0.));
#824=AXIS2_PLACEMENT_3D('',#821,#822,#823);
#825=PLANE('',#824);
#826=CARTESIAN_POINT('',(-42.,-32.,0.));
#827=VERTEX_POINT('',#826);
#828=CARTESIAN_POINT('',(-42.,-32.,30.1));
#829=VERTEX_POINT('',#828);
#830=CARTESIAN_POINT('',(-42.,-32.,0.));
#831=DIRECTION('',(-0.,-0.,1.));
#832=VECTOR('',#831,30.1);
#833=LINE('',#830,#832);
#834=EDGE_CURVE('',#827,#829,#833,.T.);
#835=ORIENTED_EDGE('',*,*,#834,.T.);
#836=CARTESIAN_POINT('',(-42.,32.,30.1));
#837=VERTEX_POINT('',#836);
#838=CARTESIAN_POINT('',(-42.,32.,30.1));
#839=DIRECTION('',(0.,-1.,0.));
#840=VECTOR('',#839,64.);
#841=LINE('',#838,#840);
#842=EDGE_CURVE('',#837,#829,#841,.T.);
#843=ORIENTED_EDGE('',*,*,#842,.F.);
#844=CARTESIAN_POINT('',(-42.,32.,0.));
#845=VERTEX_POINT('',#844);
#846=CARTESIAN_POINT('',(-42.,32.,0.));
#847=DIRECTION('',(0.,0.,1.));
#848=VECTOR('',#847,30.1);
#849=LINE('',#846,#848);
#850=EDGE_CURVE('',#845,#837,#849,.T.);
#851=ORIENTED_EDGE('',*,*,#850,.F.);
#852=CARTESIAN_POINT('',(-42.,32.,0.));
#853=DIRECTION('',(0.,-1.,0.));
#854=VECTOR('',#853,64.);
#855=LINE('',#852,#854);
#856=EDGE_CURVE('',#845,#827,#855,.T.);
#857=ORIENTED_EDGE('',*,*,#856,.T.);
#858=EDGE_LOOP('',(#835,#843,#851,#857));
#859=FACE_BOUND('',#858,.T.);
#860=ADVANCED_FACE('',(#859),#825,.F.);
#861=CARTESIAN_POINT('',(0.,0.,0.));
#862=DIRECTION('',(0.,0.,1.));
#863=DIRECTION('',(0.,-1.,0.));
#864=AXIS2_PLACEMENT_3D('',#861,#862,#863);
#865=PLANE('',#864);
#866=CARTESIAN_POINT('',(-38.,32.,0.));
#867=DIRECTION('',(-0.,-0.,-1.));
#868=DIRECTION('',(1.,0.,-0.));
#869=AXIS2_PLACEMENT_3D('',#866,#867,#868);
#870=CIRCLE('',#869,4.);
#871=EDGE_CURVE('',#845,#61,#870,.T.);
#872=ORIENTED_EDGE('',*,*,#871,.T.);
#873=ORIENTED_EDGE('',*,*,#90,.F.);
#874=CARTESIAN_POINT('',(38.,32.,0.));
#875=DIRECTION('',(0.,0.,1.));
#876=DIRECTION('',(1.,0.,-0.));
#877=AXIS2_PLACEMENT_3D('',#874,#875,#876);
#878=CIRCLE('',#877,4.);
#879=EDGE_CURVE('',#321,#79,#878,.T.);
#880=ORIENTED_EDGE('',*,*,#879,.F.);
#881=ORIENTED_EDGE('',*,*,#326,.F.);
#882=CARTESIAN_POINT('',(38.,-36.,0.));
#883=VERTEX_POINT('',#882);
#884=CARTESIAN_POINT('',(38.,-32.,0.));
#885=DIRECTION('',(0.,0.,1.));
#886=DIRECTION('',(1.,0.,-0.));
#887=AXIS2_PLACEMENT_3D('',#884,#885,#886);
#888=CIRCLE('',#887,4.);
#889=EDGE_CURVE('',#883,#313,#888,.T.);
#890=ORIENTED_EDGE('',*,*,#889,.F.);
#891=CARTESIAN_POINT('',(-38.,-36.,0.));
#892=VERTEX_POINT('',#891);
#893=CARTESIAN_POINT('',(-38.,-36.,0.));
#894=DIRECTION('',(1.,0.,0.));
#895=VECTOR('',#894,76.);
#896=LINE('',#893,#895);
#897=EDGE_CURVE('',#892,#883,#896,.T.);
#898=ORIENTED_EDGE('',*,*,#897,.F.);
#899=CARTESIAN_POINT('',(-38.,-32.,0.));
#900=DIRECTION('',(0.,0.,1.));
#901=DIRECTION('',(1.,0.,-0.));
#902=AXIS2_PLACEMENT_3D('',#899,#900,#901);
#903=CIRCLE('',#902,4.);
#904=EDGE_CURVE('',#827,#892,#903,.T.);
#905=ORIENTED_EDGE('',*,*,#904,.F.);
#906=ORIENTED_EDGE('',*,*,#856,.F.);
#907=EDGE_LOOP('',(#872,#873,#880,#881,#890,#898,#905,#906));
#908=FACE_BOUND('',#907,.T.);
#909=CARTESIAN_POINT('',(-25.41,20.22,0.));
#910=VERTEX_POINT('',#909);
#911=CARTESIAN_POINT('',(-22.91,17.72,0.));
#912=VERTEX_POINT('',#911);
#913=CARTESIAN_POINT('',(-22.91,20.22,0.));
#914=DIRECTION('',(-0.,-0.,1.));
#915=DIRECTION('',(-1.,0.,0.));
#916=AXIS2_PLACEMENT_3D('',#913,#914,#915);
#917=CIRCLE('',#916,2.5);
#918=EDGE_CURVE('',#910,#912,#917,.T.);
#919=ORIENTED_EDGE('',*,*,#918,.T.);
#920=CARTESIAN_POINT('',(-22.91,20.22,0.));
#921=DIRECTION('',(-0.,-0.,1.));
#922=DIRECTION('',(-1.,0.,0.));
#923=AXIS2_PLACEMENT_3D('',#920,#921,#922);
#924=CIRCLE('',#923,2.5);
#925=EDGE_CURVE('',#912,#910,#924,.T.);
#926=ORIENTED_EDGE('',*,*,#925,.T.);
#927=EDGE_LOOP('',(#919,#926));
#928=FACE_BOUND('',#927,.T.);
#929=CARTESIAN_POINT('',(-25.05,-2.5,0.));
#930=VERTEX_POINT('',#929);
#931=CARTESIAN_POINT('',(-24.,-3.55,0.));
#932=VERTEX_POINT('',#931);
#933=CARTESIAN_POINT('',(-24.,-2.5,0.));
#934=DIRECTION('',(-0.,-0.,1.));
#935=DIRECTION('',(-1.,0.,0.));
#936=AXIS2_PLACEMENT_3D('',#933,#934,#935);
#937=CIRCLE('',#936,1.05);
#938=EDGE_CURVE('',#930,#932,#937,.T.);
#939=ORIENTED_EDGE('',*,*,#938,.T.);
#940=CARTESIAN_POINT('',(-24.,-2.5,0.));
#941=DIRECTION('',(-0.,-0.,1.));
#942=DIRECTION('',(-1.,0.,0.));
#943=AXIS2_PLACEMENT_3D('',#940,#941,#942);
#944=CIRCLE('',#943,1.05);
#945=EDGE_CURVE('',#932,#930,#944,.T.);
#946=ORIENTED_EDGE('',*,*,#945,.T.);
#947=EDGE_LOOP('',(#939,#946));
#948=FACE_BOUND('',#947,.T.);
#949=CARTESIAN_POINT('',(-25.05,-25.5,0.));
#950=VERTEX_POINT('',#949);
#951=CARTESIAN_POINT('',(-24.,-26.55,0.));
#952=VERTEX_POINT('',#951);
#953=CARTESIAN_POINT('',(-24.,-25.5,0.));
#954=DIRECTION('',(-0.,-0.,1.));
#955=DIRECTION('',(-1.,0.,0.));
#956=AXIS2_PLACEMENT_3D('',#953,#954,#955);
#957=CIRCLE('',#956,1.05);
#958=EDGE_CURVE('',#950,#952,#957,.T.);
#959=ORIENTED_EDGE('',*,*,#958,.T.);
#960=CARTESIAN_POINT('',(-24.,-25.5,0.));
#961=DIRECTION('',(-0.,-0.,1.));
#962=DIRECTION('',(-1.,0.,0.));
#963=AXIS2_PLACEMENT_3D('',#960,#961,#962);
#964=CIRCLE('',#963,1.05);
#965=EDGE_CURVE('',#952,#950,#964,.T.);
#966=ORIENTED_EDGE('',*,*,#965,.T.);
#967=EDGE_LOOP('',(#959,#966));
#968=FACE_BOUND('',#967,.T.);
#969=CARTESIAN_POINT('',(15.,-3.,0.));
#970=VERTEX_POINT('',#969);
#971=CARTESIAN_POINT('',(15.,-5.,0.));
#972=VERTEX_POINT('',#971);
#973=CARTESIAN_POINT('',(15.,-3.,0.));
#974=DIRECTION('',(0.,-1.,-0.));
#975=VECTOR('',#974,2.);
#976=LINE('',#973,#975);
#977=EDGE_CURVE('',#970,#972,#976,.T.);
#978=ORIENTED_EDGE('',*,*,#977,.F.);
#979=CARTESIAN_POINT('',(-15.,-3.,0.));
#980=VERTEX_POINT('',#979);
#981=CARTESIAN_POINT('',(-15.,-3.,0.));
#982=DIRECTION('',(1.,0.,-0.));
#983=VECTOR('',#982,30.);
#984=LINE('',#981,#983);
#985=EDGE_CURVE('',#980,#970,#984,.T.);
#986=ORIENTED_EDGE('',*,*,#985,.F.);
#987=CARTESIAN_POINT('',(-15.,-5.,0.));
#988=VERTEX_POINT('',#987);
#989=CARTESIAN_POINT('',(-15.,-5.,0.));
#990=DIRECTION('',(-0.,1.,-0.));
#991=VECTOR('',#990,2.);
#992=LINE('',#989,#991);
#993=EDGE_CURVE('',#988,#980,#992,.T.);
#994=ORIENTED_EDGE('',*,*,#993,.F.);
#995=CARTESIAN_POINT('',(15.,-5.,0.));
#996=DIRECTION('',(-1.,-0.,-0.));
#997=VECTOR('',#996,30.);
#998=LINE('',#995,#997);
#999=EDGE_CURVE('',#972,#988,#998,.T.);
#1000=ORIENTED_EDGE('',*,*,#999,.F.);
#1001=EDGE_LOOP('',(#978,#986,#994,#1000));
#1002=FACE_BOUND('',#1001,.T.);
#1003=CARTESIAN_POINT('',(15.,-7.,0.));
#1004=VERTEX_POINT('',#1003);
#1005=CARTESIAN_POINT('',(15.,-9.,0.));
#1006=VERTEX_POINT('',#1005);
#1007=CARTESIAN_POINT('',(15.,-7.,0.));
#1008=DIRECTION('',(0.,-1.,-0.));
#1009=VECTOR('',#1008,2.);
#1010=LINE('',#1007,#1009);
#1011=EDGE_CURVE('',#1004,#1006,#1010,.T.);
#1012=ORIENTED_EDGE('',*,*,#1011,.F.);
#1013=CARTESIAN_POINT('',(-15.,-7.,0.));
#1014=VERTEX_POINT('',#1013);
#1015=CARTESIAN_POINT('',(-15.,-7.,0.));
#1016=DIRECTION('',(1.,0.,-0.));
#1017=VECTOR('',#1016,30.);
#1018=LINE('',#1015,#1017);
#1019=EDGE_CURVE('',#1014,#1004,#1018,.T.);
#1020=ORIENTED_EDGE('',*,*,#1019,.F.);
#1021=CARTESIAN_POINT('',(-15.,-9.,0.));
#1022=VERTEX_POINT('',#1021);
#1023=CARTESIAN_POINT('',(-15.,-9.,0.));
#1024=DIRECTION('',(-0.,1.,-0.));
#1025=VECTOR('',#1024,2.);
#1026=LINE('',#1023,#1025);
#1027=EDGE_CURVE('',#1022,#1014,#1026,.T.);
#1028=ORIENTED_EDGE('',*,*,#1027,.F.);
#1029=CARTESIAN_POINT('',(15.,-9.,0.));
#1030=DIRECTION('',(-1.,-0.,-0.));
#1031=VECTOR('',#1030,30.);
#1032=LINE('',#1029,#1031);
#1033=EDGE_CURVE('',#1006,#1022,#1032,.T.);
#1034=ORIENTED_EDGE('',*,*,#1033,.F.);
#1035=EDGE_LOOP('',(#1012,#1020,#1028,#1034));
#1036=FACE_BOUND('',#1035,.T.);
#1037=CARTESIAN_POINT('',(15.,-11.,0.));
#1038=VERTEX_POINT('',#1037);
#1039=CARTESIAN_POINT('',(15.,-13.,0.));
#1040=VERTEX_POINT('',#1039);
#1041=CARTESIAN_POINT('',(15.,-11.,0.));
#1042=DIRECTION('',(0.,-1.,-0.));
#1043=VECTOR('',#1042,2.);
#1044=LINE('',#1041,#1043);
#1045=EDGE_CURVE('',#1038,#1040,#1044,.T.);
#1046=ORIENTED_EDGE('',*,*,#1045,.F.);
#1047=CARTESIAN_POINT('',(-15.,-11.,0.));
#1048=VERTEX_POINT('',#1047);
#1049=CARTESIAN_POINT('',(-15.,-11.,0.));
#1050=DIRECTION('',(1.,0.,-0.));
#1051=VECTOR('',#1050,30.);
#1052=LINE('',#1049,#1051);
#1053=EDGE_CURVE('',#1048,#1038,#1052,.T.);
#1054=ORIENTED_EDGE('',*,*,#1053,.F.);
#1055=CARTESIAN_POINT('',(-15.,-13.,0.));
#1056=VERTEX_POINT('',#1055);
#1057=CARTESIAN_POINT('',(-15.,-13.,0.));
#1058=DIRECTION('',(-0.,1.,-0.));
#1059=VECTOR('',#1058,2.);
#1060=LINE('',#1057,#1059);
#1061=EDGE_CURVE('',#1056,#1048,#1060,.T.);
#1062=ORIENTED_EDGE('',*,*,#1061,.F.);
#1063=CARTESIAN_POINT('',(15.,-13.,0.));
#1064=DIRECTION('',(-1.,-0.,-0.));
#1065=VECTOR('',#1064,30.);
#1066=LINE('',#1063,#1065);
#1067=EDGE_CURVE('',#1040,#1056,#1066,.T.);
#1068=ORIENTED_EDGE('',*,*,#1067,.F.);
#1069=EDGE_LOOP('',(#1046,#1054,#1062,#1068));
#1070=FACE_BOUND('',#1069,.T.);
#1071=CARTESIAN_POINT('',(15.,-15.,0.));
#1072=VERTEX_POINT('',#1071);
#1073=CARTESIAN_POINT('',(15.,-17.,0.));
#1074=VERTEX_POINT('',#1073);
#1075=CARTESIAN_POINT('',(15.,-15.,0.));
#1076=DIRECTION('',(0.,-1.,-0.));
#1077=VECTOR('',#1076,2.);
#1078=LINE('',#1075,#1077);
#1079=EDGE_CURVE('',#1072,#1074,#1078,.T.);
#1080=ORIENTED_EDGE('',*,*,#1079,.F.);
#1081=CARTESIAN_POINT('',(-15.,-15.,0.));
#1082=VERTEX_POINT('',#1081);
#1083=CARTESIAN_POINT('',(-15.,-15.,0.));
#1084=DIRECTION('',(1.,0.,-0.));
#1085=VECTOR('',#1084,30.);
#1086=LINE('',#1083,#1085);
#1087=EDGE_CURVE('',#1082,#1072,#1086,.T.);
#1088=ORIENTED_EDGE('',*,*,#1087,.F.);
#1089=CARTESIAN_POINT('',(-15.,-17.,0.));
#1090=VERTEX_POINT('',#1089);
#1091=CARTESIAN_POINT('',(-15.,-17.,0.));
#1092=DIRECTION('',(-0.,1.,-0.));
#1093=VECTOR('',#1092,2.);
#1094=LINE('',#1091,#1093);
#1095=EDGE_CURVE('',#1090,#1082,#1094,.T.);
#1096=ORIENTED_EDGE('',*,*,#1095,.F.);
#1097=CARTESIAN_POINT('',(15.,-17.,0.));
#1098=DIRECTION('',(-1.,-0.,-0.));
#1099=VECTOR('',#1098,30.);
#1100=LINE('',#1097,#1099);
#1101=EDGE_CURVE('',#1074,#1090,#1100,.T.);
#1102=ORIENTED_EDGE('',*,*,#1101,.F.);
#1103=EDGE_LOOP('',(#1080,#1088,#1096,#1102));
#1104=FACE_BOUND('',#1103,.T.);
#1105=CARTESIAN_POINT('',(15.,-19.,0.));
#1106=VERTEX_POINT('',#1105);
#1107=CARTESIAN_POINT('',(15.,-21.,0.));
#1108=VERTEX_POINT('',#1107);
#1109=CARTESIAN_POINT('',(15.,-19.,0.));
#1110=DIRECTION('',(0.,-1.,-0.));
#1111=VECTOR('',#1110,2.);
#1112=LINE('',#1109,#1111);
#1113=EDGE_CURVE('',#1106,#1108,#1112,.T.);
#1114=ORIENTED_EDGE('',*,*,#1113,.F.);
#1115=CARTESIAN_POINT('',(-15.,-19.,0.));
#1116=VERTEX_POINT('',#1115);
#1117=CARTESIAN_POINT('',(-15.,-19.,0.));
#1118=DIRECTION('',(1.,0.,-0.));
#1119=VECTOR('',#1118,30.);
#1120=LINE('',#1117,#1119);
#1121=EDGE_CURVE('',#1116,#1106,#1120,.T.);
#1122=ORIENTED_EDGE('',*,*,#1121,.F.);
#1123=CARTESIAN_POINT('',(-15.,-21.,0.));
#1124=VERTEX_POINT('',#1123);
#1125=CARTESIAN_POINT('',(-15.,-21.,0.));
#1126=DIRECTION('',(-0.,1.,-0.));
#1127=VECTOR('',#1126,2.);
#1128=LINE('',#1125,#1127);
#1129=EDGE_CURVE('',#1124,#1116,#1128,.T.);
#1130=ORIENTED_EDGE('',*,*,#1129,.F.);
#1131=CARTESIAN_POINT('',(15.,-21.,0.));
#1132=DIRECTION('',(-1.,-0.,-0.));
#1133=VECTOR('',#1132,30.);
#1134=LINE('',#1131,#1133);
#1135=EDGE_CURVE('',#1108,#1124,#1134,.T.);
#1136=ORIENTED_EDGE('',*,*,#1135,.F.);
#1137=EDGE_LOOP('',(#1114,#1122,#1130,#1136));
#1138=FACE_BOUND('',#1137,.T.);
#1139=CARTESIAN_POINT('',(15.,-23.,0.));
#1140=VERTEX_POINT('',#1139);
#1141=CARTESIAN_POINT('',(15.,-25.,0.));
#1142=VERTEX_POINT('',#1141);
#1143=CARTESIAN_POINT('',(15.,-23.,0.));
#1144=DIRECTION('',(0.,-1.,-0.));
#1145=VECTOR('',#1144,2.);
#1146=LINE('',#1143,#1145);
#1147=EDGE_CURVE('',#1140,#1142,#1146,.T.);
#1148=ORIENTED_EDGE('',*,*,#1147,.F.);
#1149=CARTESIAN_POINT('',(-15.,-23.,0.));
#1150=VERTEX_POINT('',#1149);
#1151=CARTESIAN_POINT('',(-15.,-23.,0.));
#1152=DIRECTION('',(1.,0.,-0.));
#1153=VECTOR('',#1152,30.);
#1154=LINE('',#1151,#1153);
#1155=EDGE_CURVE('',#1150,#1140,#1154,.T.);
#1156=ORIENTED_EDGE('',*,*,#1155,.F.);
#1157=CARTESIAN_POINT('',(-15.,-25.,0.));
#1158=VERTEX_POINT('',#1157);
#1159=CARTESIAN_POINT('',(-15.,-25.,0.));
#1160=DIRECTION('',(-0.,1.,-0.));
#1161=VECTOR('',#1160,2.);
#1162=LINE('',#1159,#1161);
#1163=EDGE_CURVE('',#1158,#1150,#1162,.T.);
#1164=ORIENTED_EDGE('',*,*,#1163,.F.);
#1165=CARTESIAN_POINT('',(15.,-25.,0.));
#1166=DIRECTION('',(-1.,-0.,-0.));
#1167=VECTOR('',#1166,30.);
#1168=LINE('',#1165,#1167);
#1169=EDGE_CURVE('',#1142,#1158,#1168,.T.);
#1170=ORIENTED_EDGE('',*,*,#1169,.F.);
#1171=EDGE_LOOP('',(#1148,#1156,#1164,#1170));
#1172=FACE_BOUND('',#1171,.T.);
#1173=CARTESIAN_POINT('',(32.6,20.22,0.));
#1174=VERTEX_POINT('',#1173);
#1175=CARTESIAN_POINT('',(35.1,17.72,0.));
#1176=VERTEX_POINT('',#1175);
#1177=CARTESIAN_POINT('',(35.1,20.22,0.));
#1178=DIRECTION('',(-0.,-0.,1.));
#1179=DIRECTION('',(-1.,0.,0.));
#1180=AXIS2_PLACEMENT_3D('',#1177,#1178,#1179);
#1181=CIRCLE('',#1180,2.5);
#1182=EDGE_CURVE('',#1174,#1176,#1181,.T.);
#1183=ORIENTED_EDGE('',*,*,#1182,.T.);
#1184=CARTESIAN_POINT('',(35.1,20.22,0.));
#1185=DIRECTION('',(-0.,-0.,1.));
#1186=DIRECTION('',(-1.,0.,0.));
#1187=AXIS2_PLACEMENT_3D('',#1184,#1185,#1186);
#1188=CIRCLE('',#1187,2.5);
#1189=EDGE_CURVE('',#1176,#1174,#1188,.T.);
#1190=ORIENTED_EDGE('',*,*,#1189,.T.);
#1191=EDGE_LOOP('',(#1183,#1190));
#1192=FACE_BOUND('',#1191,.T.);
#1193=CARTESIAN_POINT('',(32.95,-2.5,0.));
#1194=VERTEX_POINT('',#1193);
#1195=CARTESIAN_POINT('',(34.,-3.55,0.));
#1196=VERTEX_POINT('',#1195);
#1197=CARTESIAN_POINT('',(34.,-2.5,0.));
#1198=DIRECTION('',(-0.,-0.,1.));
#1199=DIRECTION('',(-1.,0.,0.));
#1200=AXIS2_PLACEMENT_3D('',#1197,#1198,#1199);
#1201=CIRCLE('',#1200,1.05);
#1202=EDGE_CURVE('',#1194,#1196,#1201,.T.);
#1203=ORIENTED_EDGE('',*,*,#1202,.T.);
#1204=CARTESIAN_POINT('',(34.,-2.5,0.));
#1205=DIRECTION('',(-0.,-0.,1.));
#1206=DIRECTION('',(-1.,0.,0.));
#1207=AXIS2_PLACEMENT_3D('',#1204,#1205,#1206);
#1208=CIRCLE('',#1207,1.05);
#1209=EDGE_CURVE('',#1196,#1194,#1208,.T.);
#1210=ORIENTED_EDGE('',*,*,#1209,.T.);
#1211=EDGE_LOOP('',(#1203,#1210));
#1212=FACE_BOUND('',#1211,.T.);
#1213=CARTESIAN_POINT('',(32.95,-25.5,0.));
#1214=VERTEX_POINT('',#1213);
#1215=CARTESIAN_POINT('',(34.,-26.55,0.));
#1216=VERTEX_POINT('',#1215);
#1217=CARTESIAN_POINT('',(34.,-25.5,0.));
#1218=DIRECTION('',(-0.,-0.,1.));
#1219=DIRECTION('',(-1.,0.,0.));
#1220=AXIS2_PLACEMENT_3D('',#1217,#1218,#1219);
#1221=CIRCLE('',#1220,1.05);
#1222=EDGE_CURVE('',#1214,#1216,#1221,.T.);
#1223=ORIENTED_EDGE('',*,*,#1222,.T.);
#1224=CARTESIAN_POINT('',(34.,-25.5,0.));
#1225=DIRECTION('',(-0.,-0.,1.));
#1226=DIRECTION('',(-1.,0.,0.));
#1227=AXIS2_PLACEMENT_3D('',#1224,#1225,#1226);
#1228=CIRCLE('',#1227,1.05);
#1229=EDGE_CURVE('',#1216,#1214,#1228,.T.);
#1230=ORIENTED_EDGE('',*,*,#1229,.T.);
#1231=EDGE_LOOP('',(#1223,#1230));
#1232=FACE_BOUND('',#1231,.T.);
#1233=ADVANCED_FACE('',(#908,#928,#948,#968,#1002,#1036,#1070,#1104,#1138,#1172,#1192,#1212,#1232),#865,.F.);
#1234=CARTESIAN_POINT('',(-38.,32.,0.));
#1235=DIRECTION('',(0.,0.,1.));
#1236=DIRECTION('',(-1.,-0.,0.));
#1237=AXIS2_PLACEMENT_3D('',#1234,#1235,#1236);
#1238=CYLINDRICAL_SURFACE('',#1237,4.);
#1239=ORIENTED_EDGE('',*,*,#850,.T.);
#1240=CARTESIAN_POINT('',(-38.,32.,30.1));
#1241=DIRECTION('',(-0.,-0.,-1.));
#1242=DIRECTION('',(1.,0.,-0.));
#1243=AXIS2_PLACEMENT_3D('',#1240,#1241,#1242);
#1244=CIRCLE('',#1243,4.);
#1245=EDGE_CURVE('',#837,#63,#1244,.T.);
#1246=ORIENTED_EDGE('',*,*,#1245,.T.);
#1247=ORIENTED_EDGE('',*,*,#68,.F.);
#1248=ORIENTED_EDGE('',*,*,#871,.F.);
#1249=EDGE_LOOP('',(#1239,#1246,#1247,#1248));
#1250=FACE_BOUND('',#1249,.T.);
#1251=ADVANCED_FACE('',(#1250),#1238,.T.);
#1252=CARTESIAN_POINT('',(-38.,-32.,0.));
#1253=DIRECTION('',(0.,0.,1.));
#1254=DIRECTION('',(-1.,-0.,0.));
#1255=AXIS2_PLACEMENT_3D('',#1252,#1253,#1254);
#1256=CYLINDRICAL_SURFACE('',#1255,4.);
#1257=ORIENTED_EDGE('',*,*,#904,.T.);
#1258=CARTESIAN_POINT('',(-38.,-36.,30.1));
#1259=VERTEX_POINT('',#1258);
#1260=CARTESIAN_POINT('',(-38.,-36.,0.));
#1261=DIRECTION('',(0.,0.,1.));
#1262=VECTOR('',#1261,30.1);
#1263=LINE('',#1260,#1262);
#1264=EDGE_CURVE('',#892,#1259,#1263,.T.);
#1265=ORIENTED_EDGE('',*,*,#1264,.T.);
#1266=CARTESIAN_POINT('',(-38.,-32.,30.1));
#1267=DIRECTION('',(0.,0.,1.));
#1268=DIRECTION('',(1.,0.,-0.));
#1269=AXIS2_PLACEMENT_3D('',#1266,#1267,#1268);
#1270=CIRCLE('',#1269,4.);
#1271=EDGE_CURVE('',#829,#1259,#1270,.T.);
#1272=ORIENTED_EDGE('',*,*,#1271,.F.);
#1273=ORIENTED_EDGE('',*,*,#834,.F.);
#1274=EDGE_LOOP('',(#1257,#1265,#1272,#1273));
#1275=FACE_BOUND('',#1274,.T.);
#1276=ADVANCED_FACE('',(#1275),#1256,.T.);
#1277=CARTESIAN_POINT('',(0.,0.,30.1));
#1278=DIRECTION('',(0.,0.,1.));
#1279=DIRECTION('',(0.,-1.,0.));
#1280=AXIS2_PLACEMENT_3D('',#1277,#1278,#1279);
#1281=PLANE('',#1280);
#1282=ORIENTED_EDGE('',*,*,#842,.T.);
#1283=ORIENTED_EDGE('',*,*,#1271,.T.);
#1284=CARTESIAN_POINT('',(38.,-36.,30.1));
#1285=VERTEX_POINT('',#1284);
#1286=CARTESIAN_POINT('',(-38.,-36.,30.1));
#1287=DIRECTION('',(1.,0.,0.));
#1288=VECTOR('',#1287,76.);
#1289=LINE('',#1286,#1288);
#1290=EDGE_CURVE('',#1259,#1285,#1289,.T.);
#1291=ORIENTED_EDGE('',*,*,#1290,.T.);
#1292=CARTESIAN_POINT('',(38.,-32.,30.1));
#1293=DIRECTION('',(0.,0.,1.));
#1294=DIRECTION('',(1.,0.,-0.));
#1295=AXIS2_PLACEMENT_3D('',#1292,#1293,#1294);
#1296=CIRCLE('',#1295,4.);
#1297=EDGE_CURVE('',#1285,#303,#1296,.T.);
#1298=ORIENTED_EDGE('',*,*,#1297,.T.);
#1299=ORIENTED_EDGE('',*,*,#310,.T.);
#1300=CARTESIAN_POINT('',(38.,32.,30.1));
#1301=DIRECTION('',(0.,0.,1.));
#1302=DIRECTION('',(1.,0.,-0.));
#1303=AXIS2_PLACEMENT_3D('',#1300,#1301,#1302);
#1304=CIRCLE('',#1303,4.);
#1305=EDGE_CURVE('',#305,#71,#1304,.T.);
#1306=ORIENTED_EDGE('',*,*,#1305,.T.);
#1307=ORIENTED_EDGE('',*,*,#76,.T.);
#1308=ORIENTED_EDGE('',*,*,#1245,.F.);
#1309=EDGE_LOOP('',(#1282,#1283,#1291,#1298,#1299,#1306,#1307,#1308));
#1310=FACE_BOUND('',#1309,.T.);
#1311=CARTESIAN_POINT('',(40.,-34.,30.1));
#1312=DIRECTION('',(-1.,-0.,-0.));
#1313=VECTOR('',#1312,80.);
#1314=LINE('',#1311,#1313);
#1315=EDGE_CURVE('',#417,#273,#1314,.T.);
#1316=ORIENTED_EDGE('',*,*,#1315,.T.);
#1317=ORIENTED_EDGE('',*,*,#278,.T.);
#1318=ORIENTED_EDGE('',*,*,#158,.T.);
#1319=ORIENTED_EDGE('',*,*,#428,.T.);
#1320=EDGE_LOOP('',(#1316,#1317,#1318,#1319));
#1321=FACE_BOUND('',#1320,.T.);
#1322=ADVANCED_FACE('',(#1310,#1321),#1281,.T.);
#1323=CARTESIAN_POINT('',(-42.5,-7.,5.4));
#1324=DIRECTION('',(-0.,1.,0.));
#1325=DIRECTION('',(0.,0.,-1.));
#1326=AXIS2_PLACEMENT_3D('',#1323,#1324,#1325);
#1327=PLANE('',#1326);
#1328=ORIENTED_EDGE('',*,*,#263,.T.);
#1329=ORIENTED_EDGE('',*,*,#238,.T.);
#1330=CARTESIAN_POINT('',(-38.5,-7.,2.));
#1331=DIRECTION('',(0.,0.,-1.));
#1332=VECTOR('',#1331,0.000036621);
#1333=LINE('',#1330,#1332);
#1334=EDGE_CURVE('',#783,#227,#1333,.T.);
#1335=ORIENTED_EDGE('',*,*,#1334,.F.);
#1336=ORIENTED_EDGE('',*,*,#788,.T.);
#1337=EDGE_LOOP('',(#1328,#1329,#1335,#1336));
#1338=FACE_BOUND('',#1337,.T.);
#1339=ADVANCED_FACE('',(#1338),#1327,.F.);
#1340=CARTESIAN_POINT('',(-42.5,-21.,1.4));
#1341=DIRECTION('',(0.,-1.,0.));
#1342=DIRECTION('',(0.,0.,1.));
#1343=AXIS2_PLACEMENT_3D('',#1340,#1341,#1342);
#1344=PLANE('',#1343);
#1345=ORIENTED_EDGE('',*,*,#224,.F.);
#1346=ORIENTED_EDGE('',*,*,#254,.T.);
#1347=ORIENTED_EDGE('',*,*,#802,.T.);
#1348=CARTESIAN_POINT('',(-38.5,-21.,1.999963379));
#1349=DIRECTION('',(-0.,-0.,1.));
#1350=VECTOR('',#1349,0.000036621);
#1351=LINE('',#1348,#1350);
#1352=EDGE_CURVE('',#219,#791,#1351,.T.);
#1353=ORIENTED_EDGE('',*,*,#1352,.F.);
#1354=EDGE_LOOP('',(#1345,#1346,#1347,#1353));
#1355=FACE_BOUND('',#1354,.T.);
#1356=ADVANCED_FACE('',(#1355),#1344,.F.);
#1357=CARTESIAN_POINT('',(-42.,-36.,0.));
#1358=DIRECTION('',(-0.,1.,0.));
#1359=DIRECTION('',(1.,0.,0.));
#1360=AXIS2_PLACEMENT_3D('',#1357,#1358,#1359);
#1361=PLANE('',#1360);
#1362=CARTESIAN_POINT('',(38.,-36.,0.));
#1363=DIRECTION('',(-0.,-0.,1.));
#1364=VECTOR('',#1363,30.1);
#1365=LINE('',#1362,#1364);
#1366=EDGE_CURVE('',#883,#1285,#1365,.T.);
#1367=ORIENTED_EDGE('',*,*,#1366,.T.);
#1368=ORIENTED_EDGE('',*,*,#1290,.F.);
#1369=ORIENTED_EDGE('',*,*,#1264,.F.);
#1370=ORIENTED_EDGE('',*,*,#897,.T.);
#1371=EDGE_LOOP('',(#1367,#1368,#1369,#1370));
#1372=FACE_BOUND('',#1371,.T.);
#1373=ADVANCED_FACE('',(#1372),#1361,.F.);
#1374=CARTESIAN_POINT('',(38.,32.,0.));
#1375=DIRECTION('',(0.,-0.,1.));
#1376=DIRECTION('',(1.,0.,0.));
#1377=AXIS2_PLACEMENT_3D('',#1374,#1375,#1376);
#1378=CYLINDRICAL_SURFACE('',#1377,4.);
#1379=ORIENTED_EDGE('',*,*,#879,.T.);
#1380=ORIENTED_EDGE('',*,*,#84,.T.);
#1381=ORIENTED_EDGE('',*,*,#1305,.F.);
#1382=ORIENTED_EDGE('',*,*,#332,.F.);
#1383=EDGE_LOOP('',(#1379,#1380,#1381,#1382));
#1384=FACE_BOUND('',#1383,.T.);
#1385=ADVANCED_FACE('',(#1384),#1378,.T.);
#1386=CARTESIAN_POINT('',(38.,-32.,0.));
#1387=DIRECTION('',(0.,0.,1.));
#1388=DIRECTION('',(0.,-1.,0.));
#1389=AXIS2_PLACEMENT_3D('',#1386,#1387,#1388);
#1390=CYLINDRICAL_SURFACE('',#1389,4.);
#1391=ORIENTED_EDGE('',*,*,#889,.T.);
#1392=ORIENTED_EDGE('',*,*,#318,.T.);
#1393=ORIENTED_EDGE('',*,*,#1297,.F.);
#1394=ORIENTED_EDGE('',*,*,#1366,.F.);
#1395=EDGE_LOOP('',(#1391,#1392,#1393,#1394));
#1396=FACE_BOUND('',#1395,.T.);
#1397=ADVANCED_FACE('',(#1396),#1390,.T.);
#1398=CARTESIAN_POINT('',(-22.91,20.22,0.));
#1399=DIRECTION('',(0.,0.,-1.));
#1400=DIRECTION('',(0.,-1.,0.));
#1401=AXIS2_PLACEMENT_3D('',#1398,#1399,#1400);
#1402=CYLINDRICAL_SURFACE('',#1401,2.5);
#1403=CARTESIAN_POINT('',(-22.91,17.72,2.5));
#1404=VERTEX_POINT('',#1403);
#1405=CARTESIAN_POINT('',(-22.91,17.72,0.));
#1406=DIRECTION('',(-0.,-0.,1.));
#1407=VECTOR('',#1406,2.5);
#1408=LINE('',#1405,#1407);
#1409=EDGE_CURVE('',#912,#1404,#1408,.T.);
#1410=ORIENTED_EDGE('',*,*,#1409,.F.);
#1411=ORIENTED_EDGE('',*,*,#918,.F.);
#1412=ORIENTED_EDGE('',*,*,#925,.F.);
#1413=ORIENTED_EDGE('',*,*,#1409,.T.);
#1414=CARTESIAN_POINT('',(-25.41,20.22,2.5));
#1415=VERTEX_POINT('',#1414);
#1416=CARTESIAN_POINT('',(-22.91,20.22,2.5));
#1417=DIRECTION('',(-0.,-0.,1.));
#1418=DIRECTION('',(-1.,0.,0.));
#1419=AXIS2_PLACEMENT_3D('',#1416,#1417,#1418);
#1420=CIRCLE('',#1419,2.5);
#1421=EDGE_CURVE('',#1404,#1415,#1420,.T.);
#1422=ORIENTED_EDGE('',*,*,#1421,.T.);
#1423=CARTESIAN_POINT('',(-22.91,20.22,2.5));
#1424=DIRECTION('',(-0.,-0.,1.));
#1425=DIRECTION('',(-1.,0.,0.));
#1426=AXIS2_PLACEMENT_3D('',#1423,#1424,#1425);
#1427=CIRCLE('',#1426,2.5);
#1428=EDGE_CURVE('',#1415,#1404,#1427,.T.);
#1429=ORIENTED_EDGE('',*,*,#1428,.T.);
#1430=EDGE_LOOP('',(#1410,#1411,#1412,#1413,#1422,#1429));
#1431=FACE_BOUND('',#1430,.T.);
#1432=ADVANCED_FACE('',(#1431),#1402,.F.);
#1433=CARTESIAN_POINT('',(-24.,-2.5,0.));
#1434=DIRECTION('',(0.,0.,-1.));
#1435=DIRECTION('',(0.,-1.,0.));
#1436=AXIS2_PLACEMENT_3D('',#1433,#1434,#1435);
#1437=CYLINDRICAL_SURFACE('',#1436,1.05);
#1438=CARTESIAN_POINT('',(-24.,-3.55,5.));
#1439=VERTEX_POINT('',#1438);
#1440=CARTESIAN_POINT('',(-24.,-3.55,0.));
#1441=DIRECTION('',(-0.,-0.,1.));
#1442=VECTOR('',#1441,5.);
#1443=LINE('',#1440,#1442);
#1444=EDGE_CURVE('',#932,#1439,#1443,.T.);
#1445=ORIENTED_EDGE('',*,*,#1444,.F.);
#1446=ORIENTED_EDGE('',*,*,#938,.F.);
#1447=ORIENTED_EDGE('',*,*,#945,.F.);
#1448=ORIENTED_EDGE('',*,*,#1444,.T.);
#1449=CARTESIAN_POINT('',(-25.05,-2.5,5.));
#1450=VERTEX_POINT('',#1449);
#1451=CARTESIAN_POINT('',(-24.,-2.5,5.));
#1452=DIRECTION('',(0.,0.,-1.));
#1453=DIRECTION('',(-1.,0.,0.));
#1454=AXIS2_PLACEMENT_3D('',#1451,#1452,#1453);
#1455=CIRCLE('',#1454,1.05);
#1456=EDGE_CURVE('',#1450,#1439,#1455,.T.);
#1457=ORIENTED_EDGE('',*,*,#1456,.F.);
#1458=CARTESIAN_POINT('',(-24.,-2.5,5.));
#1459=DIRECTION('',(0.,0.,-1.));
#1460=DIRECTION('',(-1.,0.,0.));
#1461=AXIS2_PLACEMENT_3D('',#1458,#1459,#1460);
#1462=CIRCLE('',#1461,1.05);
#1463=EDGE_CURVE('',#1439,#1450,#1462,.T.);
#1464=ORIENTED_EDGE('',*,*,#1463,.F.);
#1465=EDGE_LOOP('',(#1445,#1446,#1447,#1448,#1457,#1464));
#1466=FACE_BOUND('',#1465,.T.);
#1467=ADVANCED_FACE('',(#1466),#1437,.F.);
#1468=CARTESIAN_POINT('',(-24.,-25.5,0.));
#1469=DIRECTION('',(0.,0.,-1.));
#1470=DIRECTION('',(0.,-1.,0.));
#1471=AXIS2_PLACEMENT_3D('',#1468,#1469,#1470);
#1472=CYLINDRICAL_SURFACE('',#1471,1.05);
#1473=CARTESIAN_POINT('',(-24.,-26.55,5.));
#1474=VERTEX_POINT('',#1473);
#1475=CARTESIAN_POINT('',(-24.,-26.55,0.));
#1476=DIRECTION('',(-0.,-0.,1.));
#1477=VECTOR('',#1476,5.);
#1478=LINE('',#1475,#1477);
#1479=EDGE_CURVE('',#952,#1474,#1478,.T.);
#1480=ORIENTED_EDGE('',*,*,#1479,.F.);
#1481=ORIENTED_EDGE('',*,*,#958,.F.);
#1482=ORIENTED_EDGE('',*,*,#965,.F.);
#1483=ORIENTED_EDGE('',*,*,#1479,.T.);
#1484=CARTESIAN_POINT('',(-25.05,-25.5,5.));
#1485=VERTEX_POINT('',#1484);
#1486=CARTESIAN_POINT('',(-24.,-25.5,5.));
#1487=DIRECTION('',(0.,0.,-1.));
#1488=DIRECTION('',(-1.,0.,0.));
#1489=AXIS2_PLACEMENT_3D('',#1486,#1487,#1488);
#1490=CIRCLE('',#1489,1.05);
#1491=EDGE_CURVE('',#1485,#1474,#1490,.T.);
#1492=ORIENTED_EDGE('',*,*,#1491,.F.);
#1493=CARTESIAN_POINT('',(-24.,-25.5,5.));
#1494=DIRECTION('',(0.,0.,-1.));
#1495=DIRECTION('',(-1.,0.,0.));
#1496=AXIS2_PLACEMENT_3D('',#1493,#1494,#1495);
#1497=CIRCLE('',#1496,1.05);
#1498=EDGE_CURVE('',#1474,#1485,#1497,.T.);
#1499=ORIENTED_EDGE('',*,*,#1498,.F.);
#1500=EDGE_LOOP('',(#1480,#1481,#1482,#1483,#1492,#1499));
#1501=FACE_BOUND('',#1500,.T.);
#1502=ADVANCED_FACE('',(#1501),#1472,.F.);
#1503=CARTESIAN_POINT('',(-15.,-5.,-0.5));
#1504=DIRECTION('',(-0.,1.,0.));
#1505=DIRECTION('',(1.,0.,0.));
#1506=AXIS2_PLACEMENT_3D('',#1503,#1504,#1505);
#1507=PLANE('',#1506);
#1508=ORIENTED_EDGE('',*,*,#999,.T.);
#1509=CARTESIAN_POINT('',(-15.,-5.,0.));
#1510=DIRECTION('',(-0.,-0.,1.));
#1511=VECTOR('',#1510,2.);
#1512=LINE('',#1509,#1511);
#1513=EDGE_CURVE('',#988,#502,#1512,.T.);
#1514=ORIENTED_EDGE('',*,*,#1513,.T.);
#1515=ORIENTED_EDGE('',*,*,#507,.F.);
#1516=CARTESIAN_POINT('',(15.,-5.,0.));
#1517=DIRECTION('',(-0.,-0.,1.));
#1518=VECTOR('',#1517,2.);
#1519=LINE('',#1516,#1518);
#1520=EDGE_CURVE('',#972,#500,#1519,.T.);
#1521=ORIENTED_EDGE('',*,*,#1520,.F.);
#1522=EDGE_LOOP('',(#1508,#1514,#1515,#1521));
#1523=FACE_BOUND('',#1522,.T.);
#1524=ADVANCED_FACE('',(#1523),#1507,.T.);
#1525=CARTESIAN_POINT('',(15.,-5.,-0.5));
#1526=DIRECTION('',(-1.,-0.,0.));
#1527=DIRECTION('',(-0.,1.,0.));
#1528=AXIS2_PLACEMENT_3D('',#1525,#1526,#1527);
#1529=PLANE('',#1528);
#1530=ORIENTED_EDGE('',*,*,#977,.T.);
#1531=ORIENTED_EDGE('',*,*,#1520,.T.);
#1532=ORIENTED_EDGE('',*,*,#529,.F.);
#1533=CARTESIAN_POINT('',(15.,-3.,0.));
#1534=DIRECTION('',(-0.,-0.,1.));
#1535=VECTOR('',#1534,2.);
#1536=LINE('',#1533,#1535);
#1537=EDGE_CURVE('',#970,#518,#1536,.T.);
#1538=ORIENTED_EDGE('',*,*,#1537,.F.);
#1539=EDGE_LOOP('',(#1530,#1531,#1532,#1538));
#1540=FACE_BOUND('',#1539,.T.);
#1541=ADVANCED_FACE('',(#1540),#1529,.T.);
#1542=CARTESIAN_POINT('',(-15.,-3.,-0.5));
#1543=DIRECTION('',(1.,0.,0.));
#1544=DIRECTION('',(0.,-1.,0.));
#1545=AXIS2_PLACEMENT_3D('',#1542,#1543,#1544);
#1546=PLANE('',#1545);
#1547=ORIENTED_EDGE('',*,*,#993,.T.);
#1548=CARTESIAN_POINT('',(-15.,-3.,0.));
#1549=DIRECTION('',(-0.,-0.,1.));
#1550=VECTOR('',#1549,2.);
#1551=LINE('',#1548,#1550);
#1552=EDGE_CURVE('',#980,#510,#1551,.T.);
#1553=ORIENTED_EDGE('',*,*,#1552,.T.);
#1554=ORIENTED_EDGE('',*,*,#515,.F.);
#1555=ORIENTED_EDGE('',*,*,#1513,.F.);
#1556=EDGE_LOOP('',(#1547,#1553,#1554,#1555));
#1557=FACE_BOUND('',#1556,.T.);
#1558=ADVANCED_FACE('',(#1557),#1546,.T.);
#1559=CARTESIAN_POINT('',(15.,-3.,-0.5));
#1560=DIRECTION('',(0.,-1.,0.));
#1561=DIRECTION('',(-1.,-0.,0.));
#1562=AXIS2_PLACEMENT_3D('',#1559,#1560,#1561);
#1563=PLANE('',#1562);
#1564=ORIENTED_EDGE('',*,*,#985,.T.);
#1565=ORIENTED_EDGE('',*,*,#1537,.T.);
#1566=ORIENTED_EDGE('',*,*,#523,.F.);
#1567=ORIENTED_EDGE('',*,*,#1552,.F.);
#1568=EDGE_LOOP('',(#1564,#1565,#1566,#1567));
#1569=FACE_BOUND('',#1568,.T.);
#1570=ADVANCED_FACE('',(#1569),#1563,.T.);
#1571=CARTESIAN_POINT('',(-15.,-9.,-0.5));
#1572=DIRECTION('',(-0.,1.,0.));
#1573=DIRECTION('',(1.,0.,0.));
#1574=AXIS2_PLACEMENT_3D('',#1571,#1572,#1573);
#1575=PLANE('',#1574);
#1576=ORIENTED_EDGE('',*,*,#1033,.T.);
#1577=CARTESIAN_POINT('',(-15.,-9.,0.));
#1578=DIRECTION('',(-0.,-0.,1.));
#1579=VECTOR('',#1578,2.);
#1580=LINE('',#1577,#1579);
#1581=EDGE_CURVE('',#1022,#536,#1580,.T.);
#1582=ORIENTED_EDGE('',*,*,#1581,.T.);
#1583=ORIENTED_EDGE('',*,*,#541,.F.);
#1584=CARTESIAN_POINT('',(15.,-9.,0.));
#1585=DIRECTION('',(-0.,-0.,1.));
#1586=VECTOR('',#1585,2.);
#1587=LINE('',#1584,#1586);
#1588=EDGE_CURVE('',#1006,#534,#1587,.T.);
#1589=ORIENTED_EDGE('',*,*,#1588,.F.);
#1590=EDGE_LOOP('',(#1576,#1582,#1583,#1589));
#1591=FACE_BOUND('',#1590,.T.);
#1592=ADVANCED_FACE('',(#1591),#1575,.T.);
#1593=CARTESIAN_POINT('',(15.,-9.,-0.5));
#1594=DIRECTION('',(-1.,-0.,0.));
#1595=DIRECTION('',(-0.,1.,0.));
#1596=AXIS2_PLACEMENT_3D('',#1593,#1594,#1595);
#1597=PLANE('',#1596);
#1598=ORIENTED_EDGE('',*,*,#1011,.T.);
#1599=ORIENTED_EDGE('',*,*,#1588,.T.);
#1600=ORIENTED_EDGE('',*,*,#563,.F.);
#1601=CARTESIAN_POINT('',(15.,-7.,0.));
#1602=DIRECTION('',(-0.,-0.,1.));
#1603=VECTOR('',#1602,2.);
#1604=LINE('',#1601,#1603);
#1605=EDGE_CURVE('',#1004,#552,#1604,.T.);
#1606=ORIENTED_EDGE('',*,*,#1605,.F.);
#1607=EDGE_LOOP('',(#1598,#1599,#1600,#1606));
#1608=FACE_BOUND('',#1607,.T.);
#1609=ADVANCED_FACE('',(#1608),#1597,.T.);
#1610=CARTESIAN_POINT('',(-15.,-7.,-0.5));
#1611=DIRECTION('',(1.,0.,0.));
#1612=DIRECTION('',(0.,-1.,0.));
#1613=AXIS2_PLACEMENT_3D('',#1610,#1611,#1612);
#1614=PLANE('',#1613);
#1615=ORIENTED_EDGE('',*,*,#1027,.T.);
#1616=CARTESIAN_POINT('',(-15.,-7.,0.));
#1617=DIRECTION('',(-0.,-0.,1.));
#1618=VECTOR('',#1617,2.);
#1619=LINE('',#1616,#1618);
#1620=EDGE_CURVE('',#1014,#544,#1619,.T.);
#1621=ORIENTED_EDGE('',*,*,#1620,.T.);
#1622=ORIENTED_EDGE('',*,*,#549,.F.);
#1623=ORIENTED_EDGE('',*,*,#1581,.F.);
#1624=EDGE_LOOP('',(#1615,#1621,#1622,#1623));
#1625=FACE_BOUND('',#1624,.T.);
#1626=ADVANCED_FACE('',(#1625),#1614,.T.);
#1627=CARTESIAN_POINT('',(15.,-7.,-0.5));
#1628=DIRECTION('',(0.,-1.,0.));
#1629=DIRECTION('',(-1.,-0.,0.));
#1630=AXIS2_PLACEMENT_3D('',#1627,#1628,#1629);
#1631=PLANE('',#1630);
#1632=ORIENTED_EDGE('',*,*,#1019,.T.);
#1633=ORIENTED_EDGE('',*,*,#1605,.T.);
#1634=ORIENTED_EDGE('',*,*,#557,.F.);
#1635=ORIENTED_EDGE('',*,*,#1620,.F.);
#1636=EDGE_LOOP('',(#1632,#1633,#1634,#1635));
#1637=FACE_BOUND('',#1636,.T.);
#1638=ADVANCED_FACE('',(#1637),#1631,.T.);
#1639=CARTESIAN_POINT('',(-15.,-13.,-0.5));
#1640=DIRECTION('',(-0.,1.,0.));
#1641=DIRECTION('',(1.,0.,0.));
#1642=AXIS2_PLACEMENT_3D('',#1639,#1640,#1641);
#1643=PLANE('',#1642);
#1644=ORIENTED_EDGE('',*,*,#1067,.T.);
#1645=CARTESIAN_POINT('',(-15.,-13.,0.));
#1646=DIRECTION('',(-0.,-0.,1.));
#1647=VECTOR('',#1646,2.);
#1648=LINE('',#1645,#1647);
#1649=EDGE_CURVE('',#1056,#570,#1648,.T.);
#1650=ORIENTED_EDGE('',*,*,#1649,.T.);
#1651=ORIENTED_EDGE('',*,*,#575,.F.);
#1652=CARTESIAN_POINT('',(15.,-13.,0.));
#1653=DIRECTION('',(-0.,-0.,1.));
#1654=VECTOR('',#1653,2.);
#1655=LINE('',#1652,#1654);
#1656=EDGE_CURVE('',#1040,#568,#1655,.T.);
#1657=ORIENTED_EDGE('',*,*,#1656,.F.);
#1658=EDGE_LOOP('',(#1644,#1650,#1651,#1657));
#1659=FACE_BOUND('',#1658,.T.);
#1660=ADVANCED_FACE('',(#1659),#1643,.T.);
#1661=CARTESIAN_POINT('',(15.,-13.,-0.5));
#1662=DIRECTION('',(-1.,-0.,0.));
#1663=DIRECTION('',(-0.,1.,0.));
#1664=AXIS2_PLACEMENT_3D('',#1661,#1662,#1663);
#1665=PLANE('',#1664);
#1666=ORIENTED_EDGE('',*,*,#1045,.T.);
#1667=ORIENTED_EDGE('',*,*,#1656,.T.);
#1668=ORIENTED_EDGE('',*,*,#597,.F.);
#1669=CARTESIAN_POINT('',(15.,-11.,0.));
#1670=DIRECTION('',(-0.,-0.,1.));
#1671=VECTOR('',#1670,2.);
#1672=LINE('',#1669,#1671);
#1673=EDGE_CURVE('',#1038,#586,#1672,.T.);
#1674=ORIENTED_EDGE('',*,*,#1673,.F.);
#1675=EDGE_LOOP('',(#1666,#1667,#1668,#1674));
#1676=FACE_BOUND('',#1675,.T.);
#1677=ADVANCED_FACE('',(#1676),#1665,.T.);
#1678=CARTESIAN_POINT('',(-15.,-11.,-0.5));
#1679=DIRECTION('',(1.,0.,0.));
#1680=DIRECTION('',(0.,-1.,0.));
#1681=AXIS2_PLACEMENT_3D('',#1678,#1679,#1680);
#1682=PLANE('',#1681);
#1683=ORIENTED_EDGE('',*,*,#1061,.T.);
#1684=CARTESIAN_POINT('',(-15.,-11.,0.));
#1685=DIRECTION('',(-0.,-0.,1.));
#1686=VECTOR('',#1685,2.);
#1687=LINE('',#1684,#1686);
#1688=EDGE_CURVE('',#1048,#578,#1687,.T.);
#1689=ORIENTED_EDGE('',*,*,#1688,.T.);
#1690=ORIENTED_EDGE('',*,*,#583,.F.);
#1691=ORIENTED_EDGE('',*,*,#1649,.F.);
#1692=EDGE_LOOP('',(#1683,#1689,#1690,#1691));
#1693=FACE_BOUND('',#1692,.T.);
#1694=ADVANCED_FACE('',(#1693),#1682,.T.);
#1695=CARTESIAN_POINT('',(15.,-11.,-0.5));
#1696=DIRECTION('',(0.,-1.,0.));
#1697=DIRECTION('',(-1.,-0.,0.));
#1698=AXIS2_PLACEMENT_3D('',#1695,#1696,#1697);
#1699=PLANE('',#1698);
#1700=ORIENTED_EDGE('',*,*,#1053,.T.);
#1701=ORIENTED_EDGE('',*,*,#1673,.T.);
#1702=ORIENTED_EDGE('',*,*,#591,.F.);
#1703=ORIENTED_EDGE('',*,*,#1688,.F.);
#1704=EDGE_LOOP('',(#1700,#1701,#1702,#1703));
#1705=FACE_BOUND('',#1704,.T.);
#1706=ADVANCED_FACE('',(#1705),#1699,.T.);
#1707=CARTESIAN_POINT('',(-15.,-17.,-0.5));
#1708=DIRECTION('',(-0.,1.,0.));
#1709=DIRECTION('',(1.,0.,0.));
#1710=AXIS2_PLACEMENT_3D('',#1707,#1708,#1709);
#1711=PLANE('',#1710);
#1712=ORIENTED_EDGE('',*,*,#1101,.T.);
#1713=CARTESIAN_POINT('',(-15.,-17.,0.));
#1714=DIRECTION('',(-0.,-0.,1.));
#1715=VECTOR('',#1714,2.);
#1716=LINE('',#1713,#1715);
#1717=EDGE_CURVE('',#1090,#604,#1716,.T.);
#1718=ORIENTED_EDGE('',*,*,#1717,.T.);
#1719=ORIENTED_EDGE('',*,*,#609,.F.);
#1720=CARTESIAN_POINT('',(15.,-17.,0.));
#1721=DIRECTION('',(-0.,-0.,1.));
#1722=VECTOR('',#1721,2.);
#1723=LINE('',#1720,#1722);
#1724=EDGE_CURVE('',#1074,#602,#1723,.T.);
#1725=ORIENTED_EDGE('',*,*,#1724,.F.);
#1726=EDGE_LOOP('',(#1712,#1718,#1719,#1725));
#1727=FACE_BOUND('',#1726,.T.);
#1728=ADVANCED_FACE('',(#1727),#1711,.T.);
#1729=CARTESIAN_POINT('',(15.,-17.,-0.5));
#1730=DIRECTION('',(-1.,-0.,0.));
#1731=DIRECTION('',(-0.,1.,0.));
#1732=AXIS2_PLACEMENT_3D('',#1729,#1730,#1731);
#1733=PLANE('',#1732);
#1734=ORIENTED_EDGE('',*,*,#1079,.T.);
#1735=ORIENTED_EDGE('',*,*,#1724,.T.);
#1736=ORIENTED_EDGE('',*,*,#631,.F.);
#1737=CARTESIAN_POINT('',(15.,-15.,0.));
#1738=DIRECTION('',(-0.,-0.,1.));
#1739=VECTOR('',#1738,2.);
#1740=LINE('',#1737,#1739);
#1741=EDGE_CURVE('',#1072,#620,#1740,.T.);
#1742=ORIENTED_EDGE('',*,*,#1741,.F.);
#1743=EDGE_LOOP('',(#1734,#1735,#1736,#1742));
#1744=FACE_BOUND('',#1743,.T.);
#1745=ADVANCED_FACE('',(#1744),#1733,.T.);
#1746=CARTESIAN_POINT('',(-15.,-15.,-0.5));
#1747=DIRECTION('',(1.,0.,0.));
#1748=DIRECTION('',(0.,-1.,0.));
#1749=AXIS2_PLACEMENT_3D('',#1746,#1747,#1748);
#1750=PLANE('',#1749);
#1751=ORIENTED_EDGE('',*,*,#1095,.T.);
#1752=CARTESIAN_POINT('',(-15.,-15.,0.));
#1753=DIRECTION('',(-0.,-0.,1.));
#1754=VECTOR('',#1753,2.);
#1755=LINE('',#1752,#1754);
#1756=EDGE_CURVE('',#1082,#612,#1755,.T.);
#1757=ORIENTED_EDGE('',*,*,#1756,.T.);
#1758=ORIENTED_EDGE('',*,*,#617,.F.);
#1759=ORIENTED_EDGE('',*,*,#1717,.F.);
#1760=EDGE_LOOP('',(#1751,#1757,#1758,#1759));
#1761=FACE_BOUND('',#1760,.T.);
#1762=ADVANCED_FACE('',(#1761),#1750,.T.);
#1763=CARTESIAN_POINT('',(15.,-15.,-0.5));
#1764=DIRECTION('',(0.,-1.,0.));
#1765=DIRECTION('',(-1.,-0.,0.));
#1766=AXIS2_PLACEMENT_3D('',#1763,#1764,#1765);
#1767=PLANE('',#1766);
#1768=ORIENTED_EDGE('',*,*,#1087,.T.);
#1769=ORIENTED_EDGE('',*,*,#1741,.T.);
#1770=ORIENTED_EDGE('',*,*,#625,.F.);
#1771=ORIENTED_EDGE('',*,*,#1756,.F.);
#1772=EDGE_LOOP('',(#1768,#1769,#1770,#1771));
#1773=FACE_BOUND('',#1772,.T.);
#1774=ADVANCED_FACE('',(#1773),#1767,.T.);
#1775=CARTESIAN_POINT('',(-15.,-21.,-0.5));
#1776=DIRECTION('',(-0.,1.,0.));
#1777=DIRECTION('',(1.,0.,0.));
#1778=AXIS2_PLACEMENT_3D('',#1775,#1776,#1777);
#1779=PLANE('',#1778);
#1780=ORIENTED_EDGE('',*,*,#1135,.T.);
#1781=CARTESIAN_POINT('',(-15.,-21.,0.));
#1782=DIRECTION('',(-0.,-0.,1.));
#1783=VECTOR('',#1782,2.);
#1784=LINE('',#1781,#1783);
#1785=EDGE_CURVE('',#1124,#638,#1784,.T.);
#1786=ORIENTED_EDGE('',*,*,#1785,.T.);
#1787=ORIENTED_EDGE('',*,*,#643,.F.);
#1788=CARTESIAN_POINT('',(15.,-21.,0.));
#1789=DIRECTION('',(-0.,-0.,1.));
#1790=VECTOR('',#1789,2.);
#1791=LINE('',#1788,#1790);
#1792=EDGE_CURVE('',#1108,#636,#1791,.T.);
#1793=ORIENTED_EDGE('',*,*,#1792,.F.);
#1794=EDGE_LOOP('',(#1780,#1786,#1787,#1793));
#1795=FACE_BOUND('',#1794,.T.);
#1796=ADVANCED_FACE('',(#1795),#1779,.T.);
#1797=CARTESIAN_POINT('',(15.,-21.,-0.5));
#1798=DIRECTION('',(-1.,-0.,0.));
#1799=DIRECTION('',(-0.,1.,0.));
#1800=AXIS2_PLACEMENT_3D('',#1797,#1798,#1799);
#1801=PLANE('',#1800);
#1802=ORIENTED_EDGE('',*,*,#1113,.T.);
#1803=ORIENTED_EDGE('',*,*,#1792,.T.);
#1804=ORIENTED_EDGE('',*,*,#665,.F.);
#1805=CARTESIAN_POINT('',(15.,-19.,0.));
#1806=DIRECTION('',(-0.,-0.,1.));
#1807=VECTOR('',#1806,2.);
#1808=LINE('',#1805,#1807);
#1809=EDGE_CURVE('',#1106,#654,#1808,.T.);
#1810=ORIENTED_EDGE('',*,*,#1809,.F.);
#1811=EDGE_LOOP('',(#1802,#1803,#1804,#1810));
#1812=FACE_BOUND('',#1811,.T.);
#1813=ADVANCED_FACE('',(#1812),#1801,.T.);
#1814=CARTESIAN_POINT('',(-15.,-19.,-0.5));
#1815=DIRECTION('',(1.,0.,0.));
#1816=DIRECTION('',(0.,-1.,0.));
#1817=AXIS2_PLACEMENT_3D('',#1814,#1815,#1816);
#1818=PLANE('',#1817);
#1819=ORIENTED_EDGE('',*,*,#1129,.T.);
#1820=CARTESIAN_POINT('',(-15.,-19.,0.));
#1821=DIRECTION('',(-0.,-0.,1.));
#1822=VECTOR('',#1821,2.);
#1823=LINE('',#1820,#1822);
#1824=EDGE_CURVE('',#1116,#646,#1823,.T.);
#1825=ORIENTED_EDGE('',*,*,#1824,.T.);
#1826=ORIENTED_EDGE('',*,*,#651,.F.);
#1827=ORIENTED_EDGE('',*,*,#1785,.F.);
#1828=EDGE_LOOP('',(#1819,#1825,#1826,#1827));
#1829=FACE_BOUND('',#1828,.T.);
#1830=ADVANCED_FACE('',(#1829),#1818,.T.);
#1831=CARTESIAN_POINT('',(15.,-19.,-0.5));
#1832=DIRECTION('',(0.,-1.,0.));
#1833=DIRECTION('',(-1.,-0.,0.));
#1834=AXIS2_PLACEMENT_3D('',#1831,#1832,#1833);
#1835=PLANE('',#1834);
#1836=ORIENTED_EDGE('',*,*,#1121,.T.);
#1837=ORIENTED_EDGE('',*,*,#1809,.T.);
#1838=ORIENTED_EDGE('',*,*,#659,.F.);
#1839=ORIENTED_EDGE('',*,*,#1824,.F.);
#1840=EDGE_LOOP('',(#1836,#1837,#1838,#1839));
#1841=FACE_BOUND('',#1840,.T.);
#1842=ADVANCED_FACE('',(#1841),#1835,.T.);
#1843=CARTESIAN_POINT('',(-15.,-25.,-0.5));
#1844=DIRECTION('',(-0.,1.,0.));
#1845=DIRECTION('',(1.,0.,0.));
#1846=AXIS2_PLACEMENT_3D('',#1843,#1844,#1845);
#1847=PLANE('',#1846);
#1848=ORIENTED_EDGE('',*,*,#1169,.T.);
#1849=CARTESIAN_POINT('',(-15.,-25.,0.));
#1850=DIRECTION('',(-0.,-0.,1.));
#1851=VECTOR('',#1850,2.);
#1852=LINE('',#1849,#1851);
#1853=EDGE_CURVE('',#1158,#672,#1852,.T.);
#1854=ORIENTED_EDGE('',*,*,#1853,.T.);
#1855=ORIENTED_EDGE('',*,*,#677,.F.);
#1856=CARTESIAN_POINT('',(15.,-25.,0.));
#1857=DIRECTION('',(-0.,-0.,1.));
#1858=VECTOR('',#1857,2.);
#1859=LINE('',#1856,#1858);
#1860=EDGE_CURVE('',#1142,#670,#1859,.T.);
#1861=ORIENTED_EDGE('',*,*,#1860,.F.);
#1862=EDGE_LOOP('',(#1848,#1854,#1855,#1861));
#1863=FACE_BOUND('',#1862,.T.);
#1864=ADVANCED_FACE('',(#1863),#1847,.T.);
#1865=CARTESIAN_POINT('',(15.,-25.,-0.5));
#1866=DIRECTION('',(-1.,-0.,0.));
#1867=DIRECTION('',(-0.,1.,0.));
#1868=AXIS2_PLACEMENT_3D('',#1865,#1866,#1867);
#1869=PLANE('',#1868);
#1870=ORIENTED_EDGE('',*,*,#1147,.T.);
#1871=ORIENTED_EDGE('',*,*,#1860,.T.);
#1872=ORIENTED_EDGE('',*,*,#699,.F.);
#1873=CARTESIAN_POINT('',(15.,-23.,0.));
#1874=DIRECTION('',(-0.,-0.,1.));
#1875=VECTOR('',#1874,2.);
#1876=LINE('',#1873,#1875);
#1877=EDGE_CURVE('',#1140,#688,#1876,.T.);
#1878=ORIENTED_EDGE('',*,*,#1877,.F.);
#1879=EDGE_LOOP('',(#1870,#1871,#1872,#1878));
#1880=FACE_BOUND('',#1879,.T.);
#1881=ADVANCED_FACE('',(#1880),#1869,.T.);
#1882=CARTESIAN_POINT('',(15.,-23.,-0.5));
#1883=DIRECTION('',(0.,-1.,0.));
#1884=DIRECTION('',(-1.,-0.,0.));
#1885=AXIS2_PLACEMENT_3D('',#1882,#1883,#1884);
#1886=PLANE('',#1885);
#1887=ORIENTED_EDGE('',*,*,#1155,.T.);
#1888=ORIENTED_EDGE('',*,*,#1877,.T.);
#1889=ORIENTED_EDGE('',*,*,#693,.F.);
#1890=CARTESIAN_POINT('',(-15.,-23.,0.));
#1891=DIRECTION('',(-0.,-0.,1.));
#1892=VECTOR('',#1891,2.);
#1893=LINE('',#1890,#1892);
#1894=EDGE_CURVE('',#1150,#680,#1893,.T.);
#1895=ORIENTED_EDGE('',*,*,#1894,.F.);
#1896=EDGE_LOOP('',(#1887,#1888,#1889,#1895));
#1897=FACE_BOUND('',#1896,.T.);
#1898=ADVANCED_FACE('',(#1897),#1886,.T.);
#1899=CARTESIAN_POINT('',(-15.,-23.,-0.5));
#1900=DIRECTION('',(1.,0.,0.));
#1901=DIRECTION('',(0.,-1.,0.));
#1902=AXIS2_PLACEMENT_3D('',#1899,#1900,#1901);
#1903=PLANE('',#1902);
#1904=ORIENTED_EDGE('',*,*,#1163,.T.);
#1905=ORIENTED_EDGE('',*,*,#1894,.T.);
#1906=ORIENTED_EDGE('',*,*,#685,.F.);
#1907=ORIENTED_EDGE('',*,*,#1853,.F.);
#1908=EDGE_LOOP('',(#1904,#1905,#1906,#1907));
#1909=FACE_BOUND('',#1908,.T.);
#1910=ADVANCED_FACE('',(#1909),#1903,.T.);
#1911=CARTESIAN_POINT('',(35.1,20.22,0.));
#1912=DIRECTION('',(0.,0.,-1.));
#1913=DIRECTION('',(0.,-1.,0.));
#1914=AXIS2_PLACEMENT_3D('',#1911,#1912,#1913);
#1915=CYLINDRICAL_SURFACE('',#1914,2.5);
#1916=CARTESIAN_POINT('',(35.1,17.72,2.5));
#1917=VERTEX_POINT('',#1916);
#1918=CARTESIAN_POINT('',(35.1,17.72,0.));
#1919=DIRECTION('',(-0.,-0.,1.));
#1920=VECTOR('',#1919,2.5);
#1921=LINE('',#1918,#1920);
#1922=EDGE_CURVE('',#1176,#1917,#1921,.T.);
#1923=ORIENTED_EDGE('',*,*,#1922,.F.);
#1924=ORIENTED_EDGE('',*,*,#1182,.F.);
#1925=ORIENTED_EDGE('',*,*,#1189,.F.);
#1926=ORIENTED_EDGE('',*,*,#1922,.T.);
#1927=CARTESIAN_POINT('',(32.6,20.22,2.5));
#1928=VERTEX_POINT('',#1927);
#1929=CARTESIAN_POINT('',(35.1,20.22,2.5));
#1930=DIRECTION('',(-0.,-0.,1.));
#1931=DIRECTION('',(-1.,0.,0.));
#1932=AXIS2_PLACEMENT_3D('',#1929,#1930,#1931);
#1933=CIRCLE('',#1932,2.5);
#1934=EDGE_CURVE('',#1917,#1928,#1933,.T.);
#1935=ORIENTED_EDGE('',*,*,#1934,.T.);
#1936=CARTESIAN_POINT('',(35.1,20.22,2.5));
#1937=DIRECTION('',(-0.,-0.,1.));
#1938=DIRECTION('',(-1.,0.,0.));
#1939=AXIS2_PLACEMENT_3D('',#1936,#1937,#1938);
#1940=CIRCLE('',#1939,2.5);
#1941=EDGE_CURVE('',#1928,#1917,#1940,.T.);
#1942=ORIENTED_EDGE('',*,*,#1941,.T.);
#1943=EDGE_LOOP('',(#1923,#1924,#1925,#1926,#1935,#1942));
#1944=FACE_BOUND('',#1943,.T.);
#1945=ADVANCED_FACE('',(#1944),#1915,.F.);
#1946=CARTESIAN_POINT('',(34.,-2.5,0.));
#1947=DIRECTION('',(0.,0.,-1.));
#1948=DIRECTION('',(0.,-1.,0.));
#1949=AXIS2_PLACEMENT_3D('',#1946,#1947,#1948);
#1950=CYLINDRICAL_SURFACE('',#1949,1.05);
#1951=CARTESIAN_POINT('',(34.,-3.55,5.));
#1952=VERTEX_POINT('',#1951);
#1953=CARTESIAN_POINT('',(34.,-3.55,0.));
#1954=DIRECTION('',(-0.,-0.,1.));
#1955=VECTOR('',#1954,5.);
#1956=LINE('',#1953,#1955);
#1957=EDGE_CURVE('',#1196,#1952,#1956,.T.);
#1958=ORIENTED_EDGE('',*,*,#1957,.F.);
#1959=ORIENTED_EDGE('',*,*,#1202,.F.);
#1960=ORIENTED_EDGE('',*,*,#1209,.F.);
#1961=ORIENTED_EDGE('',*,*,#1957,.T.);
#1962=CARTESIAN_POINT('',(32.95,-2.5,5.));
#1963=VERTEX_POINT('',#1962);
#1964=CARTESIAN_POINT('',(34.,-2.5,5.));
#1965=DIRECTION('',(0.,0.,-1.));
#1966=DIRECTION('',(-1.,0.,0.));
#1967=AXIS2_PLACEMENT_3D('',#1964,#1965,#1966);
#1968=CIRCLE('',#1967,1.05);
#1969=EDGE_CURVE('',#1963,#1952,#1968,.T.);
#1970=ORIENTED_EDGE('',*,*,#1969,.F.);
#1971=CARTESIAN_POINT('',(34.,-2.5,5.));
#1972=DIRECTION('',(0.,0.,-1.));
#1973=DIRECTION('',(-1.,0.,0.));
#1974=AXIS2_PLACEMENT_3D('',#1971,#1972,#1973);
#1975=CIRCLE('',#1974,1.05);
#1976=EDGE_CURVE('',#1952,#1963,#1975,.T.);
#1977=ORIENTED_EDGE('',*,*,#1976,.F.);
#1978=EDGE_LOOP('',(#1958,#1959,#1960,#1961,#1970,#1977));
#1979=FACE_BOUND('',#1978,.T.);
#1980=ADVANCED_FACE('',(#1979),#1950,.F.);
#1981=CARTESIAN_POINT('',(34.,-25.5,0.));
#1982=DIRECTION('',(0.,0.,-1.));
#1983=DIRECTION('',(0.,-1.,0.));
#1984=AXIS2_PLACEMENT_3D('',#1981,#1982,#1983);
#1985=CYLINDRICAL_SURFACE('',#1984,1.05);
#1986=CARTESIAN_POINT('',(34.,-26.55,5.));
#1987=VERTEX_POINT('',#1986);
#1988=CARTESIAN_POINT('',(34.,-26.55,0.));
#1989=DIRECTION('',(-0.,-0.,1.));
#1990=VECTOR('',#1989,5.);
#1991=LINE('',#1988,#1990);
#1992=EDGE_CURVE('',#1216,#1987,#1991,.T.);
#1993=ORIENTED_EDGE('',*,*,#1992,.F.);
#1994=ORIENTED_EDGE('',*,*,#1222,.F.);
#1995=ORIENTED_EDGE('',*,*,#1229,.F.);
#1996=ORIENTED_EDGE('',*,*,#1992,.T.);
#1997=CARTESIAN_POINT('',(32.95,-25.5,5.));
#1998=VERTEX_POINT('',#1997);
#1999=CARTESIAN_POINT('',(34.,-25.5,5.));
#2000=DIRECTION('',(0.,0.,-1.));
#2001=DIRECTION('',(-1.,0.,0.));
#2002=AXIS2_PLACEMENT_3D('',#1999,#2000,#2001);
#2003=CIRCLE('',#2002,1.05);
#2004=EDGE_CURVE('',#1998,#1987,#2003,.T.);
#2005=ORIENTED_EDGE('',*,*,#2004,.F.);
#2006=CARTESIAN_POINT('',(34.,-25.5,5.));
#2007=DIRECTION('',(0.,0.,-1.));
#2008=DIRECTION('',(-1.,0.,0.));
#2009=AXIS2_PLACEMENT_3D('',#2006,#2007,#2008);
#2010=CIRCLE('',#2009,1.05);
#2011=EDGE_CURVE('',#1987,#1998,#2010,.T.);
#2012=ORIENTED_EDGE('',*,*,#2011,.F.);
#2013=EDGE_LOOP('',(#1993,#1994,#1995,#1996,#2005,#2012));
#2014=FACE_BOUND('',#2013,.T.);
#2015=ADVANCED_FACE('',(#2014),#1985,.F.);
#2016=CARTESIAN_POINT('',(-40.,-34.,2.));
#2017=DIRECTION('',(-0.,1.,0.));
#2018=DIRECTION('',(1.,0.,0.));
#2019=AXIS2_PLACEMENT_3D('',#2016,#2017,#2018);
#2020=PLANE('',#2019);
#2021=ORIENTED_EDGE('',*,*,#809,.F.);
#2022=ORIENTED_EDGE('',*,*,#286,.T.);
#2023=ORIENTED_EDGE('',*,*,#1315,.F.);
#2024=ORIENTED_EDGE('',*,*,#422,.F.);
#2025=EDGE_LOOP('',(#2021,#2022,#2023,#2024));
#2026=FACE_BOUND('',#2025,.T.);
#2027=ADVANCED_FACE('',(#2026),#2020,.T.);
#2028=CARTESIAN_POINT('',(-38.5,-14.,3.4));
#2029=DIRECTION('',(-1.,-0.,0.));
#2030=DIRECTION('',(0.,0.,-1.));
#2031=AXIS2_PLACEMENT_3D('',#2028,#2029,#2030);
#2032=PLANE('',#2031);
#2033=ORIENTED_EDGE('',*,*,#1334,.T.);
#2034=ORIENTED_EDGE('',*,*,#232,.T.);
#2035=ORIENTED_EDGE('',*,*,#1352,.T.);
#2036=ORIENTED_EDGE('',*,*,#796,.F.);
#2037=EDGE_LOOP('',(#2033,#2034,#2035,#2036));
#2038=FACE_BOUND('',#2037,.T.);
#2039=ADVANCED_FACE('',(#2038),#2032,.T.);
#2040=CARTESIAN_POINT('',(-22.91,20.22,2.5));
#2041=DIRECTION('',(0.,0.,1.));
#2042=DIRECTION('',(0.,-1.,0.));
#2043=AXIS2_PLACEMENT_3D('',#2040,#2041,#2042);
#2044=PLANE('',#2043);
#2045=ORIENTED_EDGE('',*,*,#1421,.F.);
#2046=ORIENTED_EDGE('',*,*,#1428,.F.);
#2047=EDGE_LOOP('',(#2045,#2046));
#2048=FACE_BOUND('',#2047,.T.);
#2049=CARTESIAN_POINT('',(-22.91,18.77,2.5));
#2050=VERTEX_POINT('',#2049);
#2051=CARTESIAN_POINT('',(-24.36,20.22,2.5));
#2052=VERTEX_POINT('',#2051);
#2053=CARTESIAN_POINT('',(-22.91,20.22,2.5));
#2054=DIRECTION('',(0.,0.,-1.));
#2055=DIRECTION('',(-1.,0.,0.));
#2056=AXIS2_PLACEMENT_3D('',#2053,#2054,#2055);
#2057=CIRCLE('',#2056,1.45);
#2058=EDGE_CURVE('',#2050,#2052,#2057,.T.);
#2059=ORIENTED_EDGE('',*,*,#2058,.F.);
#2060=CARTESIAN_POINT('',(-22.91,20.22,2.5));
#2061=DIRECTION('',(0.,0.,-1.));
#2062=DIRECTION('',(-1.,0.,0.));
#2063=AXIS2_PLACEMENT_3D('',#2060,#2061,#2062);
#2064=CIRCLE('',#2063,1.45);
#2065=EDGE_CURVE('',#2052,#2050,#2064,.T.);
#2066=ORIENTED_EDGE('',*,*,#2065,.F.);
#2067=EDGE_LOOP('',(#2059,#2066));
#2068=FACE_BOUND('',#2067,.T.);
#2069=ADVANCED_FACE('',(#2048,#2068),#2044,.F.);
#2070=CARTESIAN_POINT('',(-24.,-2.5,5.));
#2071=DIRECTION('',(0.,0.,1.));
#2072=DIRECTION('',(0.,-1.,0.));
#2073=AXIS2_PLACEMENT_3D('',#2070,#2071,#2072);
#2074=PLANE('',#2073);
#2075=CARTESIAN_POINT('',(-26.5,-2.5,5.));
#2076=VERTEX_POINT('',#2075);
#2077=CARTESIAN_POINT('',(-24.,-5.,5.));
#2078=VERTEX_POINT('',#2077);
#2079=CARTESIAN_POINT('',(-24.,-2.5,5.));
#2080=DIRECTION('',(-0.,-0.,1.));
#2081=DIRECTION('',(-1.,0.,0.));
#2082=AXIS2_PLACEMENT_3D('',#2079,#2080,#2081);
#2083=CIRCLE('',#2082,2.5);
#2084=EDGE_CURVE('',#2076,#2078,#2083,.T.);
#2085=ORIENTED_EDGE('',*,*,#2084,.T.);
#2086=CARTESIAN_POINT('',(-24.,-2.5,5.));
#2087=DIRECTION('',(-0.,-0.,1.));
#2088=DIRECTION('',(-1.,0.,0.));
#2089=AXIS2_PLACEMENT_3D('',#2086,#2087,#2088);
#2090=CIRCLE('',#2089,2.5);
#2091=EDGE_CURVE('',#2078,#2076,#2090,.T.);
#2092=ORIENTED_EDGE('',*,*,#2091,.T.);
#2093=EDGE_LOOP('',(#2085,#2092));
#2094=FACE_BOUND('',#2093,.T.);
#2095=ORIENTED_EDGE('',*,*,#1456,.T.);
#2096=ORIENTED_EDGE('',*,*,#1463,.T.);
#2097=EDGE_LOOP('',(#2095,#2096));
#2098=FACE_BOUND('',#2097,.T.);
#2099=ADVANCED_FACE('',(#2094,#2098),#2074,.T.);
#2100=CARTESIAN_POINT('',(-24.,-25.5,5.));
#2101=DIRECTION('',(0.,0.,1.));
#2102=DIRECTION('',(0.,-1.,0.));
#2103=AXIS2_PLACEMENT_3D('',#2100,#2101,#2102);
#2104=PLANE('',#2103);
#2105=CARTESIAN_POINT('',(-26.5,-25.5,5.));
#2106=VERTEX_POINT('',#2105);
#2107=CARTESIAN_POINT('',(-24.,-28.,5.));
#2108=VERTEX_POINT('',#2107);
#2109=CARTESIAN_POINT('',(-24.,-25.5,5.));
#2110=DIRECTION('',(-0.,-0.,1.));
#2111=DIRECTION('',(-1.,0.,0.));
#2112=AXIS2_PLACEMENT_3D('',#2109,#2110,#2111);
#2113=CIRCLE('',#2112,2.5);
#2114=EDGE_CURVE('',#2106,#2108,#2113,.T.);
#2115=ORIENTED_EDGE('',*,*,#2114,.T.);
#2116=CARTESIAN_POINT('',(-24.,-25.5,5.));
#2117=DIRECTION('',(-0.,-0.,1.));
#2118=DIRECTION('',(-1.,0.,0.));
#2119=AXIS2_PLACEMENT_3D('',#2116,#2117,#2118);
#2120=CIRCLE('',#2119,2.5);
#2121=EDGE_CURVE('',#2108,#2106,#2120,.T.);
#2122=ORIENTED_EDGE('',*,*,#2121,.T.);
#2123=EDGE_LOOP('',(#2115,#2122));
#2124=FACE_BOUND('',#2123,.T.);
#2125=ORIENTED_EDGE('',*,*,#1491,.T.);
#2126=ORIENTED_EDGE('',*,*,#1498,.T.);
#2127=EDGE_LOOP('',(#2125,#2126));
#2128=FACE_BOUND('',#2127,.T.);
#2129=ADVANCED_FACE('',(#2124,#2128),#2104,.T.);
#2130=CARTESIAN_POINT('',(35.1,20.22,2.5));
#2131=DIRECTION('',(0.,0.,1.));
#2132=DIRECTION('',(0.,-1.,0.));
#2133=AXIS2_PLACEMENT_3D('',#2130,#2131,#2132);
#2134=PLANE('',#2133);
#2135=ORIENTED_EDGE('',*,*,#1934,.F.);
#2136=ORIENTED_EDGE('',*,*,#1941,.F.);
#2137=EDGE_LOOP('',(#2135,#2136));
#2138=FACE_BOUND('',#2137,.T.);
#2139=CARTESIAN_POINT('',(35.1,18.77,2.5));
#2140=VERTEX_POINT('',#2139);
#2141=CARTESIAN_POINT('',(33.65,20.22,2.5));
#2142=VERTEX_POINT('',#2141);
#2143=CARTESIAN_POINT('',(35.1,20.22,2.5));
#2144=DIRECTION('',(0.,0.,-1.));
#2145=DIRECTION('',(-1.,0.,0.));
#2146=AXIS2_PLACEMENT_3D('',#2143,#2144,#2145);
#2147=CIRCLE('',#2146,1.45);
#2148=EDGE_CURVE('',#2140,#2142,#2147,.T.);
#2149=ORIENTED_EDGE('',*,*,#2148,.F.);
#2150=CARTESIAN_POINT('',(35.1,20.22,2.5));
#2151=DIRECTION('',(0.,0.,-1.));
#2152=DIRECTION('',(-1.,0.,0.));
#2153=AXIS2_PLACEMENT_3D('',#2150,#2151,#2152);
#2154=CIRCLE('',#2153,1.45);
#2155=EDGE_CURVE('',#2142,#2140,#2154,.T.);
#2156=ORIENTED_EDGE('',*,*,#2155,.F.);
#2157=EDGE_LOOP('',(#2149,#2156));
#2158=FACE_BOUND('',#2157,.T.);
#2159=ADVANCED_FACE('',(#2138,#2158),#2134,.F.);
#2160=CARTESIAN_POINT('',(34.,-2.5,5.));
#2161=DIRECTION('',(0.,0.,1.));
#2162=DIRECTION('',(0.,-1.,0.));
#2163=AXIS2_PLACEMENT_3D('',#2160,#2161,#2162);
#2164=PLANE('',#2163);
#2165=CARTESIAN_POINT('',(31.5,-2.5,5.));
#2166=VERTEX_POINT('',#2165);
#2167=CARTESIAN_POINT('',(34.,-5.,5.));
#2168=VERTEX_POINT('',#2167);
#2169=CARTESIAN_POINT('',(34.,-2.5,5.));
#2170=DIRECTION('',(-0.,-0.,1.));
#2171=DIRECTION('',(-1.,0.,0.));
#2172=AXIS2_PLACEMENT_3D('',#2169,#2170,#2171);
#2173=CIRCLE('',#2172,2.5);
#2174=EDGE_CURVE('',#2166,#2168,#2173,.T.);
#2175=ORIENTED_EDGE('',*,*,#2174,.T.);
#2176=CARTESIAN_POINT('',(34.,-2.5,5.));
#2177=DIRECTION('',(-0.,-0.,1.));
#2178=DIRECTION('',(-1.,0.,0.));
#2179=AXIS2_PLACEMENT_3D('',#2176,#2177,#2178);
#2180=CIRCLE('',#2179,2.5);
#2181=EDGE_CURVE('',#2168,#2166,#2180,.T.);
#2182=ORIENTED_EDGE('',*,*,#2181,.T.);
#2183=EDGE_LOOP('',(#2175,#2182));
#2184=FACE_BOUND('',#2183,.T.);
#2185=ORIENTED_EDGE('',*,*,#1969,.T.);
#2186=ORIENTED_EDGE('',*,*,#1976,.T.);
#2187=EDGE_LOOP('',(#2185,#2186));
#2188=FACE_BOUND('',#2187,.T.);
#2189=ADVANCED_FACE('',(#2184,#2188),#2164,.T.);
#2190=CARTESIAN_POINT('',(34.,-25.5,5.));
#2191=DIRECTION('',(0.,0.,1.));
#2192=DIRECTION('',(0.,-1.,0.));
#2193=AXIS2_PLACEMENT_3D('',#2190,#2191,#2192);
#2194=PLANE('',#2193);
#2195=CARTESIAN_POINT('',(31.5,-25.5,5.));
#2196=VERTEX_POINT('',#2195);
#2197=CARTESIAN_POINT('',(34.,-28.,5.));
#2198=VERTEX_POINT('',#2197);
#2199=CARTESIAN_POINT('',(34.,-25.5,5.));
#2200=DIRECTION('',(-0.,-0.,1.));
#2201=DIRECTION('',(-1.,0.,0.));
#2202=AXIS2_PLACEMENT_3D('',#2199,#2200,#2201);
#2203=CIRCLE('',#2202,2.5);
#2204=EDGE_CURVE('',#2196,#2198,#2203,.T.);
#2205=ORIENTED_EDGE('',*,*,#2204,.T.);
#2206=CARTESIAN_POINT('',(34.,-25.5,5.));
#2207=DIRECTION('',(-0.,-0.,1.));
#2208=DIRECTION('',(-1.,0.,0.));
#2209=AXIS2_PLACEMENT_3D('',#2206,#2207,#2208);
#2210=CIRCLE('',#2209,2.5);
#2211=EDGE_CURVE('',#2198,#2196,#2210,.T.);
#2212=ORIENTED_EDGE('',*,*,#2211,.T.);
#2213=EDGE_LOOP('',(#2205,#2212));
#2214=FACE_BOUND('',#2213,.T.);
#2215=ORIENTED_EDGE('',*,*,#2004,.T.);
#2216=ORIENTED_EDGE('',*,*,#2011,.T.);
#2217=EDGE_LOOP('',(#2215,#2216));
#2218=FACE_BOUND('',#2217,.T.);
#2219=ADVANCED_FACE('',(#2214,#2218),#2194,.T.);
#2220=CARTESIAN_POINT('',(-22.91,20.22,2.));
#2221=DIRECTION('',(0.,0.,-1.));
#2222=DIRECTION('',(0.,-1.,0.));
#2223=AXIS2_PLACEMENT_3D('',#2220,#2221,#2222);
#2224=CYLINDRICAL_SURFACE('',#2223,3.75);
#2225=CARTESIAN_POINT('',(-22.91,16.47,14.9));
#2226=VERTEX_POINT('',#2225);
#2227=CARTESIAN_POINT('',(-22.91,16.47,2.));
#2228=DIRECTION('',(-0.,-0.,1.));
#2229=VECTOR('',#2228,12.9);
#2230=LINE('',#2227,#2229);
#2231=EDGE_CURVE('',#440,#2226,#2230,.T.);
#2232=ORIENTED_EDGE('',*,*,#2231,.T.);
#2233=CARTESIAN_POINT('',(-26.66,20.22,14.9));
#2234=VERTEX_POINT('',#2233);
#2235=CARTESIAN_POINT('',(-22.91,20.22,14.9));
#2236=DIRECTION('',(-0.,-0.,1.));
#2237=DIRECTION('',(-1.,0.,0.));
#2238=AXIS2_PLACEMENT_3D('',#2235,#2236,#2237);
#2239=CIRCLE('',#2238,3.75);
#2240=EDGE_CURVE('',#2234,#2226,#2239,.T.);
#2241=ORIENTED_EDGE('',*,*,#2240,.F.);
#2242=CARTESIAN_POINT('',(-22.91,20.22,14.9));
#2243=DIRECTION('',(-0.,-0.,1.));
#2244=DIRECTION('',(-1.,0.,0.));
#2245=AXIS2_PLACEMENT_3D('',#2242,#2243,#2244);
#2246=CIRCLE('',#2245,3.75);
#2247=EDGE_CURVE('',#2226,#2234,#2246,.T.);
#2248=ORIENTED_EDGE('',*,*,#2247,.F.);
#2249=ORIENTED_EDGE('',*,*,#2231,.F.);
#2250=ORIENTED_EDGE('',*,*,#448,.T.);
#2251=ORIENTED_EDGE('',*,*,#455,.T.);
#2252=EDGE_LOOP('',(#2232,#2241,#2248,#2249,#2250,#2251));
#2253=FACE_BOUND('',#2252,.T.);
#2254=ADVANCED_FACE('',(#2253),#2224,.T.);
#2255=CARTESIAN_POINT('',(-24.,-2.5,2.));
#2256=DIRECTION('',(0.,0.,-1.));
#2257=DIRECTION('',(0.,-1.,0.));
#2258=AXIS2_PLACEMENT_3D('',#2255,#2256,#2257);
#2259=CYLINDRICAL_SURFACE('',#2258,2.5);
#2260=CARTESIAN_POINT('',(-24.,-5.,2.));
#2261=DIRECTION('',(-0.,-0.,1.));
#2262=VECTOR('',#2261,3.);
#2263=LINE('',#2260,#2262);
#2264=EDGE_CURVE('',#460,#2078,#2263,.T.);
#2265=ORIENTED_EDGE('',*,*,#2264,.T.);
#2266=ORIENTED_EDGE('',*,*,#2084,.F.);
#2267=ORIENTED_EDGE('',*,*,#2091,.F.);
#2268=ORIENTED_EDGE('',*,*,#2264,.F.);
#2269=ORIENTED_EDGE('',*,*,#468,.T.);
#2270=ORIENTED_EDGE('',*,*,#475,.T.);
#2271=EDGE_LOOP('',(#2265,#2266,#2267,#2268,#2269,#2270));
#2272=FACE_BOUND('',#2271,.T.);
#2273=ADVANCED_FACE('',(#2272),#2259,.T.);
#2274=CARTESIAN_POINT('',(-24.,-25.5,2.));
#2275=DIRECTION('',(0.,0.,-1.));
#2276=DIRECTION('',(0.,-1.,0.));
#2277=AXIS2_PLACEMENT_3D('',#2274,#2275,#2276);
#2278=CYLINDRICAL_SURFACE('',#2277,2.5);
#2279=CARTESIAN_POINT('',(-24.,-28.,2.));
#2280=DIRECTION('',(-0.,-0.,1.));
#2281=VECTOR('',#2280,3.);
#2282=LINE('',#2279,#2281);
#2283=EDGE_CURVE('',#480,#2108,#2282,.T.);
#2284=ORIENTED_EDGE('',*,*,#2283,.T.);
#2285=ORIENTED_EDGE('',*,*,#2114,.F.);
#2286=ORIENTED_EDGE('',*,*,#2121,.F.);
#2287=ORIENTED_EDGE('',*,*,#2283,.F.);
#2288=ORIENTED_EDGE('',*,*,#488,.T.);
#2289=ORIENTED_EDGE('',*,*,#495,.T.);
#2290=EDGE_LOOP('',(#2284,#2285,#2286,#2287,#2288,#2289));
#2291=FACE_BOUND('',#2290,.T.);
#2292=ADVANCED_FACE('',(#2291),#2278,.T.);
#2293=CARTESIAN_POINT('',(35.1,20.22,2.));
#2294=DIRECTION('',(0.,0.,-1.));
#2295=DIRECTION('',(0.,-1.,0.));
#2296=AXIS2_PLACEMENT_3D('',#2293,#2294,#2295);
#2297=CYLINDRICAL_SURFACE('',#2296,3.75);
#2298=CARTESIAN_POINT('',(35.1,16.47,14.9));
#2299=VERTEX_POINT('',#2298);
#2300=CARTESIAN_POINT('',(35.1,16.47,2.));
#2301=DIRECTION('',(-0.,-0.,1.));
#2302=VECTOR('',#2301,12.9);
#2303=LINE('',#2300,#2302);
#2304=EDGE_CURVE('',#704,#2299,#2303,.T.);
#2305=ORIENTED_EDGE('',*,*,#2304,.T.);
#2306=CARTESIAN_POINT('',(31.35,20.22,14.9));
#2307=VERTEX_POINT('',#2306);
#2308=CARTESIAN_POINT('',(35.1,20.22,14.9));
#2309=DIRECTION('',(-0.,-0.,1.));
#2310=DIRECTION('',(-1.,0.,0.));
#2311=AXIS2_PLACEMENT_3D('',#2308,#2309,#2310);
#2312=CIRCLE('',#2311,3.75);
#2313=EDGE_CURVE('',#2307,#2299,#2312,.T.);
#2314=ORIENTED_EDGE('',*,*,#2313,.F.);
#2315=CARTESIAN_POINT('',(35.1,20.22,14.9));
#2316=DIRECTION('',(-0.,-0.,1.));
#2317=DIRECTION('',(-1.,0.,0.));
#2318=AXIS2_PLACEMENT_3D('',#2315,#2316,#2317);
#2319=CIRCLE('',#2318,3.75);
#2320=EDGE_CURVE('',#2299,#2307,#2319,.T.);
#2321=ORIENTED_EDGE('',*,*,#2320,.F.);
#2322=ORIENTED_EDGE('',*,*,#2304,.F.);
#2323=ORIENTED_EDGE('',*,*,#712,.T.);
#2324=ORIENTED_EDGE('',*,*,#719,.T.);
#2325=EDGE_LOOP('',(#2305,#2314,#2321,#2322,#2323,#2324));
#2326=FACE_BOUND('',#2325,.T.);
#2327=ADVANCED_FACE('',(#2326),#2297,.T.);
#2328=CARTESIAN_POINT('',(34.,-2.5,2.));
#2329=DIRECTION('',(0.,0.,-1.));
#2330=DIRECTION('',(0.,-1.,0.));
#2331=AXIS2_PLACEMENT_3D('',#2328,#2329,#2330);
#2332=CYLINDRICAL_SURFACE('',#2331,2.5);
#2333=CARTESIAN_POINT('',(34.,-5.,2.));
#2334=DIRECTION('',(-0.,-0.,1.));
#2335=VECTOR('',#2334,3.);
#2336=LINE('',#2333,#2335);
#2337=EDGE_CURVE('',#724,#2168,#2336,.T.);
#2338=ORIENTED_EDGE('',*,*,#2337,.T.);
#2339=ORIENTED_EDGE('',*,*,#2174,.F.);
#2340=ORIENTED_EDGE('',*,*,#2181,.F.);
#2341=ORIENTED_EDGE('',*,*,#2337,.F.);
#2342=ORIENTED_EDGE('',*,*,#732,.T.);
#2343=ORIENTED_EDGE('',*,*,#739,.T.);
#2344=EDGE_LOOP('',(#2338,#2339,#2340,#2341,#2342,#2343));
#2345=FACE_BOUND('',#2344,.T.);
#2346=ADVANCED_FACE('',(#2345),#2332,.T.);
#2347=CARTESIAN_POINT('',(34.,-25.5,2.));
#2348=DIRECTION('',(0.,0.,-1.));
#2349=DIRECTION('',(0.,-1.,0.));
#2350=AXIS2_PLACEMENT_3D('',#2347,#2348,#2349);
#2351=CYLINDRICAL_SURFACE('',#2350,2.5);
#2352=CARTESIAN_POINT('',(34.,-28.,2.));
#2353=DIRECTION('',(-0.,-0.,1.));
#2354=VECTOR('',#2353,3.);
#2355=LINE('',#2352,#2354);
#2356=EDGE_CURVE('',#744,#2198,#2355,.T.);
#2357=ORIENTED_EDGE('',*,*,#2356,.T.);
#2358=ORIENTED_EDGE('',*,*,#2204,.F.);
#2359=ORIENTED_EDGE('',*,*,#2211,.F.);
#2360=ORIENTED_EDGE('',*,*,#2356,.F.);
#2361=ORIENTED_EDGE('',*,*,#752,.T.);
#2362=ORIENTED_EDGE('',*,*,#759,.T.);
#2363=EDGE_LOOP('',(#2357,#2358,#2359,#2360,#2361,#2362));
#2364=FACE_BOUND('',#2363,.T.);
#2365=ADVANCED_FACE('',(#2364),#2351,.T.);
#2366=CARTESIAN_POINT('',(-22.91,20.22,-0.5));
#2367=DIRECTION('',(0.,0.,-1.));
#2368=DIRECTION('',(0.,-1.,0.));
#2369=AXIS2_PLACEMENT_3D('',#2366,#2367,#2368);
#2370=CYLINDRICAL_SURFACE('',#2369,1.45);
#2371=CARTESIAN_POINT('',(-22.91,18.77,14.9));
#2372=VERTEX_POINT('',#2371);
#2373=CARTESIAN_POINT('',(-22.91,18.77,2.5));
#2374=DIRECTION('',(-0.,-0.,1.));
#2375=VECTOR('',#2374,12.4);
#2376=LINE('',#2373,#2375);
#2377=EDGE_CURVE('',#2050,#2372,#2376,.T.);
#2378=ORIENTED_EDGE('',*,*,#2377,.F.);
#2379=ORIENTED_EDGE('',*,*,#2058,.T.);
#2380=ORIENTED_EDGE('',*,*,#2065,.T.);
#2381=ORIENTED_EDGE('',*,*,#2377,.T.);
#2382=CARTESIAN_POINT('',(-24.36,20.22,14.9));
#2383=VERTEX_POINT('',#2382);
#2384=CARTESIAN_POINT('',(-22.91,20.22,14.9));
#2385=DIRECTION('',(0.,0.,-1.));
#2386=DIRECTION('',(-1.,0.,0.));
#2387=AXIS2_PLACEMENT_3D('',#2384,#2385,#2386);
#2388=CIRCLE('',#2387,1.45);
#2389=EDGE_CURVE('',#2383,#2372,#2388,.T.);
#2390=ORIENTED_EDGE('',*,*,#2389,.F.);
#2391=CARTESIAN_POINT('',(-22.91,20.22,14.9));
#2392=DIRECTION('',(0.,0.,-1.));
#2393=DIRECTION('',(-1.,0.,0.));
#2394=AXIS2_PLACEMENT_3D('',#2391,#2392,#2393);
#2395=CIRCLE('',#2394,1.45);
#2396=EDGE_CURVE('',#2372,#2383,#2395,.T.);
#2397=ORIENTED_EDGE('',*,*,#2396,.F.);
#2398=EDGE_LOOP('',(#2378,#2379,#2380,#2381,#2390,#2397));
#2399=FACE_BOUND('',#2398,.T.);
#2400=ADVANCED_FACE('',(#2399),#2370,.F.);
#2401=CARTESIAN_POINT('',(35.1,20.22,-0.5));
#2402=DIRECTION('',(0.,0.,-1.));
#2403=DIRECTION('',(0.,-1.,0.));
#2404=AXIS2_PLACEMENT_3D('',#2401,#2402,#2403);
#2405=CYLINDRICAL_SURFACE('',#2404,1.45);
#2406=CARTESIAN_POINT('',(35.1,18.77,14.9));
#2407=VERTEX_POINT('',#2406);
#2408=CARTESIAN_POINT('',(35.1,18.77,2.5));
#2409=DIRECTION('',(-0.,-0.,1.));
#2410=VECTOR('',#2409,12.4);
#2411=LINE('',#2408,#2410);
#2412=EDGE_CURVE('',#2140,#2407,#2411,.T.);
#2413=ORIENTED_EDGE('',*,*,#2412,.F.);
#2414=ORIENTED_EDGE('',*,*,#2148,.T.);
#2415=ORIENTED_EDGE('',*,*,#2155,.T.);
#2416=ORIENTED_EDGE('',*,*,#2412,.T.);
#2417=CARTESIAN_POINT('',(33.65,20.22,14.9));
#2418=VERTEX_POINT('',#2417);
#2419=CARTESIAN_POINT('',(35.1,20.22,14.9));
#2420=DIRECTION('',(0.,0.,-1.));
#2421=DIRECTION('',(-1.,0.,0.));
#2422=AXIS2_PLACEMENT_3D('',#2419,#2420,#2421);
#2423=CIRCLE('',#2422,1.45);
#2424=EDGE_CURVE('',#2418,#2407,#2423,.T.);
#2425=ORIENTED_EDGE('',*,*,#2424,.F.);
#2426=CARTESIAN_POINT('',(35.1,20.22,14.9));
#2427=DIRECTION('',(0.,0.,-1.));
#2428=DIRECTION('',(-1.,0.,0.));
#2429=AXIS2_PLACEMENT_3D('',#2426,#2427,#2428);
#2430=CIRCLE('',#2429,1.45);
#2431=EDGE_CURVE('',#2407,#2418,#2430,.T.);
#2432=ORIENTED_EDGE('',*,*,#2431,.F.);
#2433=EDGE_LOOP('',(#2413,#2414,#2415,#2416,#2425,#2432));
#2434=FACE_BOUND('',#2433,.T.);
#2435=ADVANCED_FACE('',(#2434),#2405,.F.);
#2436=CARTESIAN_POINT('',(-22.91,20.22,14.9));
#2437=DIRECTION('',(0.,0.,1.));
#2438=DIRECTION('',(0.,-1.,0.));
#2439=AXIS2_PLACEMENT_3D('',#2436,#2437,#2438);
#2440=PLANE('',#2439);
#2441=ORIENTED_EDGE('',*,*,#2240,.T.);
#2442=ORIENTED_EDGE('',*,*,#2247,.T.);
#2443=EDGE_LOOP('',(#2441,#2442));
#2444=FACE_BOUND('',#2443,.T.);
#2445=ORIENTED_EDGE('',*,*,#2389,.T.);
#2446=ORIENTED_EDGE('',*,*,#2396,.T.);
#2447=EDGE_LOOP('',(#2445,#2446));
#2448=FACE_BOUND('',#2447,.T.);
#2449=ADVANCED_FACE('',(#2444,#2448),#2440,.T.);
#2450=CARTESIAN_POINT('',(35.1,20.22,14.9));
#2451=DIRECTION('',(0.,0.,1.));
#2452=DIRECTION('',(0.,-1.,0.));
#2453=AXIS2_PLACEMENT_3D('',#2450,#2451,#2452);
#2454=PLANE('',#2453);
#2455=ORIENTED_EDGE('',*,*,#2313,.T.);
#2456=ORIENTED_EDGE('',*,*,#2320,.T.);
#2457=EDGE_LOOP('',(#2455,#2456));
#2458=FACE_BOUND('',#2457,.T.);
#2459=ORIENTED_EDGE('',*,*,#2424,.T.);
#2460=ORIENTED_EDGE('',*,*,#2431,.T.);
#2461=EDGE_LOOP('',(#2459,#2460));
#2462=FACE_BOUND('',#2461,.T.);
#2463=ADVANCED_FACE('',(#2458,#2462),#2454,.T.);
#2464=CARTESIAN_POINT('',(38.49988,-6.99878,3.40714));
#2465=DIRECTION('',(0.,-1.,-0.));
#2466=DIRECTION('',(0.,0.,-1.));
#2467=AXIS2_PLACEMENT_3D('',#2464,#2465,#2466);
#2468=PLANE('',#2467);
#2469=ORIENTED_EDGE('',*,*,#777,.F.);
#2470=CARTESIAN_POINT('',(38.49988,-6.99878,1.41324));
#2471=VERTEX_POINT('',#2470);
#2472=CARTESIAN_POINT('',(38.49988,-6.99878,2.));
#2473=DIRECTION('',(-0.,0.,-1.));
#2474=VECTOR('',#2473,0.58676);
#2475=LINE('',#2472,#2474);
#2476=EDGE_CURVE('',#766,#2471,#2475,.T.);
#2477=ORIENTED_EDGE('',*,*,#2476,.T.);
#2478=CARTESIAN_POINT('',(38.49988,-6.99878,1.41324));
#2479=DIRECTION('',(1.,0.,0.));
#2480=VECTOR('',#2479,3.50012);
#2481=LINE('',#2478,#2480);
#2482=EDGE_CURVE('',#2471,#339,#2481,.T.);
#2483=ORIENTED_EDGE('',*,*,#2482,.T.);
#2484=ORIENTED_EDGE('',*,*,#344,.F.);
#2485=CARTESIAN_POINT('',(40.,-6.99878,5.40104));
#2486=DIRECTION('',(1.,0.,0.));
#2487=VECTOR('',#2486,2.);
#2488=LINE('',#2485,#2487);
#2489=EDGE_CURVE('',#385,#337,#2488,.T.);
#2490=ORIENTED_EDGE('',*,*,#2489,.F.);
#2491=ORIENTED_EDGE('',*,*,#390,.F.);
#2492=EDGE_LOOP('',(#2469,#2477,#2483,#2484,#2490,#2491));
#2493=FACE_BOUND('',#2492,.T.);
#2494=ADVANCED_FACE('',(#2493),#2468,.T.);
#2495=CARTESIAN_POINT('',(38.49988,-13.99902,5.40104));
#2496=DIRECTION('',(-0.,0.,-1.));
#2497=DIRECTION('',(0.,1.,0.));
#2498=AXIS2_PLACEMENT_3D('',#2495,#2496,#2497);
#2499=PLANE('',#2498);
#2500=ORIENTED_EDGE('',*,*,#2489,.T.);
#2501=ORIENTED_EDGE('',*,*,#366,.F.);
#2502=CARTESIAN_POINT('',(40.,-20.99926,5.40104));
#2503=DIRECTION('',(1.,0.,0.));
#2504=VECTOR('',#2503,2.);
#2505=LINE('',#2502,#2504);
#2506=EDGE_CURVE('',#393,#355,#2505,.T.);
#2507=ORIENTED_EDGE('',*,*,#2506,.F.);
#2508=ORIENTED_EDGE('',*,*,#398,.F.);
#2509=EDGE_LOOP('',(#2500,#2501,#2507,#2508));
#2510=FACE_BOUND('',#2509,.T.);
#2511=ADVANCED_FACE('',(#2510),#2499,.T.);
#2512=CARTESIAN_POINT('',(38.49988,-20.99926,3.40714));
#2513=DIRECTION('',(-0.,1.,0.));
#2514=DIRECTION('',(-1.,-0.,0.));
#2515=AXIS2_PLACEMENT_3D('',#2512,#2513,#2514);
#2516=PLANE('',#2515);
#2517=ORIENTED_EDGE('',*,*,#2506,.T.);
#2518=ORIENTED_EDGE('',*,*,#360,.F.);
#2519=CARTESIAN_POINT('',(38.49988,-20.99926,1.41324));
#2520=VERTEX_POINT('',#2519);
#2521=CARTESIAN_POINT('',(38.49988,-20.99926,1.41324));
#2522=DIRECTION('',(1.,0.,0.));
#2523=VECTOR('',#2522,3.50012);
#2524=LINE('',#2521,#2523);
#2525=EDGE_CURVE('',#2520,#347,#2524,.T.);
#2526=ORIENTED_EDGE('',*,*,#2525,.F.);
#2527=CARTESIAN_POINT('',(38.49988,-20.99926,1.41324));
#2528=DIRECTION('',(0.,0.,1.));
#2529=VECTOR('',#2528,0.58676);
#2530=LINE('',#2527,#2529);
#2531=EDGE_CURVE('',#2520,#764,#2530,.T.);
#2532=ORIENTED_EDGE('',*,*,#2531,.T.);
#2533=ORIENTED_EDGE('',*,*,#816,.F.);
#2534=ORIENTED_EDGE('',*,*,#406,.F.);
#2535=EDGE_LOOP('',(#2517,#2518,#2526,#2532,#2533,#2534));
#2536=FACE_BOUND('',#2535,.T.);
#2537=ADVANCED_FACE('',(#2536),#2516,.T.);
#2538=CARTESIAN_POINT('',(38.49988,-13.99902,1.41324));
#2539=DIRECTION('',(0.,-0.,1.));
#2540=DIRECTION('',(0.,-1.,-0.));
#2541=AXIS2_PLACEMENT_3D('',#2538,#2539,#2540);
#2542=PLANE('',#2541);
#2543=ORIENTED_EDGE('',*,*,#352,.F.);
#2544=ORIENTED_EDGE('',*,*,#2482,.F.);
#2545=CARTESIAN_POINT('',(38.49988,-6.99878,1.41324));
#2546=DIRECTION('',(0.,-1.,-0.));
#2547=VECTOR('',#2546,14.00048);
#2548=LINE('',#2545,#2547);
#2549=EDGE_CURVE('',#2471,#2520,#2548,.T.);
#2550=ORIENTED_EDGE('',*,*,#2549,.T.);
#2551=ORIENTED_EDGE('',*,*,#2525,.T.);
#2552=EDGE_LOOP('',(#2543,#2544,#2550,#2551));
#2553=FACE_BOUND('',#2552,.T.);
#2554=ADVANCED_FACE('',(#2553),#2542,.T.);
#2555=CARTESIAN_POINT('',(38.49988,0.,0.));
#2556=DIRECTION('',(1.,0.,0.));
#2557=DIRECTION('',(-0.,1.,0.));
#2558=AXIS2_PLACEMENT_3D('',#2555,#2556,#2557);
#2559=PLANE('',#2558);
#2560=ORIENTED_EDGE('',*,*,#2531,.F.);
#2561=ORIENTED_EDGE('',*,*,#2549,.F.);
#2562=ORIENTED_EDGE('',*,*,#2476,.F.);
#2563=ORIENTED_EDGE('',*,*,#771,.F.);
#2564=EDGE_LOOP('',(#2560,#2561,#2562,#2563));
#2565=FACE_BOUND('',#2564,.T.);
#2566=ADVANCED_FACE('',(#2565),#2559,.T.);
#2567=CARTESIAN_POINT('',(17.88,29.65,11.43));
#2568=DIRECTION('',(-1.,-0.,0.));
#2569=DIRECTION('',(0.,-1.,0.));
#2570=AXIS2_PLACEMENT_3D('',#2567,#2568,#2569);
#2571=PLANE('',#2570);
#2572=CARTESIAN_POINT('',(17.88,34.,17.78));
#2573=DIRECTION('',(-0.,1.,0.));
#2574=VECTOR('',#2573,2.);
#2575=LINE('',#2572,#2574);
#2576=EDGE_CURVE('',#171,#97,#2575,.T.);
#2577=ORIENTED_EDGE('',*,*,#2576,.T.);
#2578=ORIENTED_EDGE('',*,*,#102,.F.);
#2579=CARTESIAN_POINT('',(17.88,34.,5.08));
#2580=DIRECTION('',(-0.,1.,0.));
#2581=VECTOR('',#2580,2.);
#2582=LINE('',#2579,#2581);
#2583=EDGE_CURVE('',#179,#95,#2582,.T.);
#2584=ORIENTED_EDGE('',*,*,#2583,.F.);
#2585=ORIENTED_EDGE('',*,*,#184,.F.);
#2586=EDGE_LOOP('',(#2577,#2578,#2584,#2585));
#2587=FACE_BOUND('',#2586,.T.);
#2588=ADVANCED_FACE('',(#2587),#2571,.T.);
#2589=CARTESIAN_POINT('',(-4.98,29.65,5.08));
#2590=DIRECTION('',(0.,0.,1.));
#2591=DIRECTION('',(1.,0.,-0.));
#2592=AXIS2_PLACEMENT_3D('',#2589,#2590,#2591);
#2593=PLANE('',#2592);
#2594=ORIENTED_EDGE('',*,*,#2583,.T.);
#2595=ORIENTED_EDGE('',*,*,#124,.F.);
#2596=CARTESIAN_POINT('',(-27.84,34.,5.08));
#2597=DIRECTION('',(-0.,1.,0.));
#2598=VECTOR('',#2597,2.);
#2599=LINE('',#2596,#2598);
#2600=EDGE_CURVE('',#187,#113,#2599,.T.);
#2601=ORIENTED_EDGE('',*,*,#2600,.F.);
#2602=ORIENTED_EDGE('',*,*,#192,.F.);
#2603=EDGE_LOOP('',(#2594,#2595,#2601,#2602));
#2604=FACE_BOUND('',#2603,.T.);
#2605=ADVANCED_FACE('',(#2604),#2593,.T.);
#2606=CARTESIAN_POINT('',(-27.84,29.65,11.43));
#2607=DIRECTION('',(1.,0.,-0.));
#2608=DIRECTION('',(-0.,0.,-1.));
#2609=AXIS2_PLACEMENT_3D('',#2606,#2607,#2608);
#2610=PLANE('',#2609);
#2611=ORIENTED_EDGE('',*,*,#2600,.T.);
#2612=ORIENTED_EDGE('',*,*,#118,.F.);
#2613=CARTESIAN_POINT('',(-27.84,34.,17.78));
#2614=DIRECTION('',(-0.,1.,0.));
#2615=VECTOR('',#2614,2.);
#2616=LINE('',#2613,#2615);
#2617=EDGE_CURVE('',#169,#105,#2616,.T.);
#2618=ORIENTED_EDGE('',*,*,#2617,.F.);
#2619=ORIENTED_EDGE('',*,*,#198,.F.);
#2620=EDGE_LOOP('',(#2611,#2612,#2618,#2619));
#2621=FACE_BOUND('',#2620,.T.);
#2622=ADVANCED_FACE('',(#2621),#2610,.T.);
#2623=CARTESIAN_POINT('',(-4.98,29.65,17.78));
#2624=DIRECTION('',(-0.,-0.,-1.));
#2625=DIRECTION('',(-1.,0.,0.));
#2626=AXIS2_PLACEMENT_3D('',#2623,#2624,#2625);
#2627=PLANE('',#2626);
#2628=ORIENTED_EDGE('',*,*,#2617,.T.);
#2629=ORIENTED_EDGE('',*,*,#110,.F.);
#2630=ORIENTED_EDGE('',*,*,#2576,.F.);
#2631=ORIENTED_EDGE('',*,*,#176,.F.);
#2632=EDGE_LOOP('',(#2628,#2629,#2630,#2631));
#2633=FACE_BOUND('',#2632,.T.);
#2634=ADVANCED_FACE('',(#2633),#2627,.T.);
#2635=CLOSED_SHELL('',(#128,#202,#242,#296,#370,#433,#820,#860,#1233,#1251,#1276,#1322,#1339,#1356,#1373,#1385,#1397,#1432,#1467,#1502,#1524,#1541,#1558,#1570,#1592,#1609,
#1626,#1638,#1660,#1677,#1694,#1706,#1728,#1745,#1762,#1774,#1796,#1813,#1830,#1842,#1864,#1881,#1898,#1910,#1945,#1980,#2015,#2027,#2039,#2069,#2099,
#2129,#2159,#2189,#2219,#2254,#2273,#2292,#2327,#2346,#2365,#2400,#2435,#2449,#2463,#2494,#2511,#2537,#2554,#2566,#2588,#2605,#2622,#2634));
#2636=MANIFOLD_SOLID_BREP('Imported 01',#2635);
#2637=COLOUR_RGB('',0.494117647,0.494117647,0.525490224);
#2638=FILL_AREA_STYLE_COLOUR('',#2637);
#2639=FILL_AREA_STYLE('',(#2638));
#2640=SURFACE_STYLE_FILL_AREA(#2639);
#2641=SURFACE_SIDE_STYLE('',(#2640));
#2642=SURFACE_STYLE_USAGE(.BOTH.,#2641);
#2643=PRESENTATION_STYLE_ASSIGNMENT((#2642));
#54=STYLED_ITEM('',(#2643),#2636);
#35=SHAPE_REPRESENTATION('case.step',(#15),#33);
#36=ADVANCED_BREP_SHAPE_REPRESENTATION('case.step',(#2636),#33);
#2651=SHAPE_REPRESENTATION_RELATIONSHIP('','',#35,#36);
#2652=CARTESIAN_POINT('',(0.,0.,0.));
#2653=DIRECTION('',(0.,0.,1.));
#2654=DIRECTION('',(1.,0.,0.));
#2655=AXIS2_PLACEMENT_3D('',#2652,#2653,#2654);
#2657=MAPPED_ITEM('',#2656,#2655);
#2656=REPRESENTATION_MAP(#2655,#35);
#2658=APPLICATION_CONTEXT('Managed model based 3d engineering');
#2659=APPLICATION_PROTOCOL_DEFINITION('international standard','ap242_managed_model_based_3d_engineering',2014,#2658);
#2660=PRODUCT_CONTEXT('',#2658,'mechanical');
#2661=PRODUCT_DEFINITION_CONTEXT('part definition',#2658,'design');
#43=PRODUCT('case.step','case.step','',(#2660));
#2662=PRODUCT_RELATED_PRODUCT_CATEGORY('part','',(#43));
#2663=PRODUCT_DEFINITION_FORMATION_WITH_SPECIFIED_SOURCE('','',#43,.NOT_KNOWN.);
#44=PRODUCT_DEFINITION('design','',#2663,#2661);
#42=PRODUCT_DEFINITION_SHAPE('','',#44);
#2664=SHAPE_DEFINITION_REPRESENTATION(#42,#35);
#34=DRAUGHTING_MODEL('',(#2657),#33);
#16=SHAPE_REPRESENTATION('root',(#15,#48),#10);
#2665=CARTESIAN_POINT('',(0.,0.,0.));
#2666=DIRECTION('',(0.,0.,1.));
#2667=DIRECTION('',(1.,0.,0.));
#2668=AXIS2_PLACEMENT_3D('',#2665,#2666,#2667);
#2670=MAPPED_ITEM('',#2669,#2668);
#2669=REPRESENTATION_MAP(#2668,#16);
#24=PRODUCT('root','root','',(#2660));
#2671=PRODUCT_RELATED_PRODUCT_CATEGORY('part','',(#24));
#2672=PRODUCT_DEFINITION_FORMATION_WITH_SPECIFIED_SOURCE('','',#24,.NOT_KNOWN.);
#25=PRODUCT_DEFINITION('design','',#2672,#2661);
#23=PRODUCT_DEFINITION_SHAPE('','',#25);
#2673=SHAPE_DEFINITION_REPRESENTATION(#23,#16);
#11=DRAUGHTING_MODEL('',(#2670),#10);
#2674=DESCRIPTIVE_REPRESENTATION_ITEM('KEY','/private/var/mobile/Containers/Data/Application/A1D00A3E-404F-4430-9116-94474F55FCE0/tmp/079E895A-656B-4F98-B5D1-1167965ED45C.tmp');
#2675=PROPERTY_DEFINITION('KEY','',#25);
#2676=REPRESENTATION('',(#2674),#10);
#2677=PROPERTY_DEFINITION_REPRESENTATION(#2675,#2676);
#2678=GENERAL_PROPERTY('','KEY','');
#2679=GENERAL_PROPERTY_ASSOCIATION('','',#2678,#2675);
#1=MECHANICAL_DESIGN_GEOMETRIC_PRESENTATION_REPRESENTATION('',(#54),#10);
ENDSEC;
END-ISO-10303-21;
